<svg xmlns="http://www.w3.org/2000/svg" version="1.1" xmlns:xlink="http://www.w3.org/1999/xlink" xmlns:svgjs="http://svgjs.dev/svgjs" width="1000" height="1000" viewBox="0 0 1000 1000"><rect width="1000" height="1000" fill="#ffffff"></rect><g transform="matrix(0.7,0,0,0.7,150,106.25)"><svg viewBox="0 0 320 360" data-background-color="#dedede" preserveAspectRatio="xMidYMid meet" height="1125" width="1000" xmlns="http://www.w3.org/2000/svg" xmlns:xlink="http://www.w3.org/1999/xlink"><g id="tight-bounds" transform="matrix(1,0,0,1,0,0)"><svg viewBox="0 0 320 360" height="360" width="320"><g><svg></svg></g><g><svg viewBox="0 0 320 360" height="360" width="320"><g><path xmlns="http://www.w3.org/2000/svg" d="M165.217 303.356c-1.404-1.755-2.809-0.702-2.808-1.755-8.426 2.106-24.223-3.511-30.894-2.809 1.404-2.106-2.106-1.755-2.106-3.159-1.404 2.106-2.809 0-4.915 0.702-2.106-5.266-10.532-1.404-11.585-8.075-4.915 0-6.67-2.809-11.586-5.617 0.351-0.351 0.702-0.351 1.054-0.702-2.457-0.351-2.457-1.755-4.564-1.755l0.702-1.405c-3.862-0.702-5.266-6.67-10.883-8.776-1.755-0.351-5.617-6.319-7.723-7.724-1.053-0.702-2.809-0.702-0.352-1.053-0.351-0.351-0.351-1.053 0-1.404-2.457-0.702-2.809-2.809-5.968-3.862-0.351-1.053 0.702-1.755 0-2.457-0.702-0.351-1.755 0.351-2.457 0-0.351 6.319 6.67 7.021 8.777 12.287-0.702-0.702-1.755-2.809-2.458-1.404-0.351 1.053 2.809 4.915 2.809 2.808-1.053 0.702-1.404-1.053-0.703-1.404 1.053 1.755 3.16 1.404 3.16 2.809-1.053 1.053-2.457-1.053-2.106 0.702 3.16 1.755 2.809 3.511 4.563 5.968-1.404-1.755-1.755 1.404-3.159 0-0.351-5.266-6.319-4.213-6.319-9.479-0.702-1.755-1.404-0.351-2.458-1.053 1.404-1.404-4.213-6.319-4.213-4.564-1.755-2.106-0.702-2.809-1.053-4.213-1.404-0.351-0.351 1.404-1.404 0.351 1.404-2.457-1.755-5.617-3.862-8.074l1.405-0.702c-2.457-1.404-2.809-4.213-4.564-7.373-2.106 3.16 4.213 10.181 3.159 11.585 0 0.351 2.457 3.16 3.16 4.564 2.809 4.915 4.915 10.883 8.777 13.692-0.702-0.351-0.351-2.457 0.702-1.404 0 1.053-0.702 2.106-0.702 3.159 2.106 2.106 3.862 3.862 5.968 5.968-4.564-2.809-9.128-5.617-12.288-9.83 1.755-0.351 3.511 2.809 4.915 2.458-3.511-2.809-2.457-3.862-3.861-7.372-1.404-1.053 0.351 1.404-1.054 1.755-4.564-4.213-8.075-6.67-10.181-10.532 0.351-0.351 0.702-0.702 0.703-1.404-0.351-0.351-0.351-0.351-0.703-0.702 2.106 2.106 2.809 3.862 5.266 4.212-1.053-1.053 0-1.404-1.404-2.457-0.702-1.404-1.755 0.702-2.457-0.351 0.702-1.053 0-2.457 0-3.511-0.702 0-1.404 0-1.756-1.053-0.702-0.351-1.053 0-1.404 0.702-0.351-0.351-0.351-1.053-0.702-1.404v-0.351c-0.351-0.351-0.702-1.053-1.053-1.405-2.809-7.372-4.564-17.202-8.426-23.521 1.053-4.213-0.702-12.638-1.755-14.745 1.053-1.755 0.351-9.83-0.351-11.234-1.755 0.702 0.351 4.564-1.404 5.617-1.755-7.723 1.053-16.5 0.351-23.521 0.702 0 1.404 0 1.404-0.351-1.053-1.053 0.702-3.16 0.351-5.617 1.404-3.16-3.16 4.564-3.16 7.723-0.351 0.702-1.755 0-1.404 1.756 0 2.457 0.702 7.372-0.702 10.883-0.702 0-0.702-0.702-1.404-0.351-0.351 1.755-0.702 3.862-1.053 5.617-0.351-0.702-0.702-1.755-0.703-2.107-1.755-8.777 0-18.958-0.702-26.33 1.404 0 1.404-2.106 2.458-2.808-0.351 2.809-1.053 6.319 0.702 7.021 1.404-13.692 4.213-28.787 10.532-43.532 4.564-10.883 11.234-21.766 19.308-30.543 0.702 1.053-0.351 3.511 0 4.564 7.021-7.372 11.585-16.149 19.309-21.064 0.351 1.755-3.16 3.16-3.16 4.564 3.16-3.16 4.213-2.106 7.724-3.159 1.053-1.404-1.404 0-1.756-1.405 2.106-1.404 3.511-3.16 4.915-4.212 0 0.351-0.351 0.351-0.351 0.702 3.862-1.053 4.213-3.16 7.022-3.862-0.351-0.351-1.053-0.702-2.107-0.351 0.702-0.351 1.755-1.053 2.809-1.404-0.351 0-0.351 0.351-0.702 0.351 2.106-1.053 0.351 0.351 0.351 1.053 0.351 0 0.702-0.351 0.702-0.351-2.106 1.404-3.511 2.106-4.213 4.564 1.053-0.702 1.404 0 2.809-1.054 1.404-0.702-0.351-1.755 0.702-2.457 1.053 0.702 2.457 0.351 3.51 0.351 0-0.702 0.351-1.404 1.054-1.755 0.351-0.702 0-1.053-0.352-1.053 0.351-0.351 0.702-0.351 1.405-0.703 0 0 0.351 0 0.351 0.351 5.968-2.809 12.638-5.266 18.957-7.372 3.862-0.351 8.777-0.351 10.883-2.808-0.702 0-1.404 0.351-1.755 0 0.351 0 1.053-0.351 1.404-0.351 0.702 0.702 1.755 0 0.702 1.404 0.351 0 0.351 0 0.703-0.351 0 0.351 0 0.351 0.351 0.702 0.351 0 0.702-0.351 1.053-1.053 0.351 0 0.702 0 1.053-0.351l-0.351 0.351c2.809-0.702 5.266-0.351 9.128-1.054 0-0.351 0-0.702 0-1.053 0.702 0 1.053-0.351 1.755-0.351v0.351c1.404-0.702 2.809 0.702 2.808 0 0.351 0 0.351 0 0.703 0 0 0.702-0.351 1.053-0.351 1.405 1.755 0 2.809 0 3.51-1.054-0.351-0.351-0.702-0.351-1.053-0.351 0.702 0 1.404-0.351 2.106-0.702 1.053 0.351 1.404 0.702 1.405 2.107 1.755-3.16 7.372 0.702 9.829 0 1.053 0 0.702-1.404 1.405-2.107 0.351 0 0.702 0 1.053 0 1.755 1.404 4.213 2.809 7.372 3.16-2.809-0.702 0.351-1.053 0.702-1.405-0.702 0-0.702-0.351-0.702-0.702 1.053 0 2.106 0.351 3.16 0.351 0 0.702 0.351 1.053 1.053 1.054 0.702 0 0.702-0.351 0.702-1.054 1.053 0 1.755 0 2.809 0.351-0.351 1.404 1.755 1.755 2.457 2.809-2.809-0.702-5.968-1.755-7.021 0 11.234 2.457 23.521 5.968 35.457 11.936 0 0 0 0 0 0.351h0.352c2.106 1.053 4.213 2.106 6.319 3.16 1.404 0.702 2.457 1.404 3.861 2.457 0 0.351 0 0.702 0.703 0.702h0.351c1.404 1.053 2.809 1.755 4.212 2.809 1.404 2.106 2.809 4.915 5.266 4.213 5.266 8.075 10.883 11.234 15.447 19.659 0.351-1.404 1.404 3.16 3.16 3.511-2.809-0.351 1.755 1.755-1.053 1.404 2.457 2.457 3.16 3.511 3.51 6.319-0.702-1.404-1.053-1.755-1.404-0.351-0.351 2.106 2.457-0.351 3.511 1.756-2.106 0-1.404 1.404-1.054 3.159 1.053-1.053 0.702-2.106 1.756-1.755 1.404 1.404-0.702 1.755-0.351 2.809 1.053-1.404 1.404-0.702 2.808 0-1.755 0.351 1.053 2.809-1.053 1.755 1.404 1.755 1.755 2.809 1.053 4.564-1.404-2.106-0.351-3.511-2.457-3.16 4.213 3.511 2.106 11.585 7.021 12.287-3.16 0.702 0 2.106-1.755 2.458 2.106 0.702 1.053 3.511 3.51 4.213-0.351 1.755-1.053 2.809-1.404 4.563 1.053 1.404 1.404 4.213 3.16 4.564-1.053 1.053-0.351 3.862-1.404 4.915 1.404-0.702 2.106-0.702 3.159 0.702-1.755 1.404-0.351 2.809-1.404 3.16 3.16 8.075-0.702 24.575 1.053 30.894-2.106-1.053-1.404 2.457-2.808 2.457 2.457 1.053 0.351 2.809 1.404 4.564-4.915 2.809 0 10.532-6.67 12.287 0.702 4.915-2.106 7.021-4.213 12.288-0.351-0.351-0.351-0.702-0.702-1.054-0.351 2.457-1.755 2.809-1.054 4.915l-1.404-0.702c0 3.862-5.968 5.968-7.372 11.936-0.351 1.755-5.617 6.319-7.022 8.777-0.702 1.053-0.351 2.809-1.053 0.351-0.351 0.351-1.053 0.351-1.404 0.351-0.351 2.457-2.457 3.16-3.16 6.319-0.702 0.351-1.755-0.702-2.457 0.351 0 0.702 0.702 1.755 0.351 2.458 6.319-0.351 6.319-7.723 11.234-10.181-0.351 1.053-2.457 2.106-1.053 2.808 1.053 0 4.213-3.511 2.457-3.159 1.053 0.702-1.053 1.404-1.404 1.053 1.755-1.404 1.053-3.16 2.458-3.511 1.053 0.702-1.053 2.457 1.053 2.107 1.404-3.16 3.16-3.511 5.266-5.266-1.404 1.404 1.755 1.755 0.351 3.159-5.266 1.053-3.511 7.021-8.777 7.724-1.404 1.053-0.351 1.404-0.702 2.457-1.755-1.053-5.617 4.915-4.213 4.564-1.755 1.755-2.809 1.053-4.212 1.404-0.351 1.404 1.404 0.351 0.702 1.405-2.457-1.053-5.617 2.457-7.724 4.915l-1.053-1.054c-1.053 2.809-3.862 3.16-7.021 5.266 3.511 1.755 9.479-5.617 11.234-4.564 0.351 0 3.16-2.809 4.213-3.861 4.564-3.511 10.181-6.319 12.287-10.181-0.351 0.702-2.457 0.702-1.404-0.351 1.053-0.351 2.106 0.351 3.159 0.351 5.617-7.723 12.638-14.043 17.905-23.17 0.351-0.351 0.702-1.053 1.053-1.756-0.702 2.106-1.755 3.862-2.458 5.968-5.617 3.862-7.723 15.096-14.393 16.851 0.351 3.862-3.16 4.915-4.915 9.479-1.053 1.404-1.755-1.053-2.809 0.702 1.053 4.915-8.777 4.564-8.425 9.128-0.702 0.351-1.755 0.702-2.458 1.404h-0.351c-0.351 0.351-0.351 0.351-0.702 0.702-1.755 1.053-3.16 2.106-4.564 3.16-4.915 2.809-11.585 4.915-16.851 7.723v-0.351c-1.404 0.702-3.16 0.351-2.809 1.756-1.053 0.702-2.106 1.404-3.159 2.106-0.351 0-0.351 0-0.702 0 0 0-0.351-0.351-0.702-0.351-0.702 0-0.702 0-1.054 0.351-4.564 0.351-10.532 2.457-12.287 3.862-1.755-1.053-9.83 0.702-11.234 1.404 0.702 1.053 2.809 0 4.564 0-1.053 0.351-2.106 0.702-2.458 1.404-0.351 0-0.351 0-0.702 0-0.351-1.053-1.404 0-1.755-0.351h0.351c-0.351-1.404-1.404-2.106-3.16-1.755 0 0.702 0 1.053-0.351 1.755 0.702 0 2.809-1.053 2.809 0-0.351 0-0.351 0.351 0 0.351-0.702 0.702-1.755 0.702-2.458 1.054-1.404 0-3.16 0-4.563 0-0.351-0.351-0.702-0.351-1.405-0.703-0.351 0.351-1.053 0.351-1.404 0.703-2.106 0-4.564 0.351-6.319 0.702 0-0.702 0-1.404-0.702-1.405-1.053 1.404-3.16-0.351-5.617 0.352-2.457-0.702 1.404 1.053 4.915 1.755-0.351 0.351-0.702 0.702-1.756 1.053M116.068 308.271c-4.915-4.564-15.096-6.67-16.851-10.181-2.809-0.351-7.021-5.617-10.532-6.319 1.755 0 0.351-1.053 0-1.755-0.702 0.702-1.404 1.053-2.106 1.053 0-2.809-2.809-4.564-5.266-6.319 1.755 1.053 3.16 1.755 5.266 2.106 0-0.702 0-1.404 0.702-1.404 2.457 2.457 5.266 4.915 8.425 7.372 4.213 3.862 25.979 13.692 29.841 15.447 0 0-0.702 1.404-0.351 1.404 1.755 1.053 3.16-1.053 3.511 1.404-5.617 0.702-7.723-3.16-12.639-2.808M277.909 226.824v0.351 0c-0.351 0 0-0.351 0-0.351M136.079 64.281c-0.351 0.351-0.702 0.351-0.702 0.351 0-0.351 0.351-0.351 0.702-0.351M129.409 66.036c0 0.351 0 0.351 0 0 0 0.351 0 0.351 0 0 0 0.351 0 0 0 0M106.238 73.408v0c0.351-0.351 0.351-0.351 0.703-0.351-0.351 0-0.702 0.351-0.703 0.351M162.409 61.823c-0.702 0-1.053 0-1.404-0.351 0.351 0 0.702 0 1.053 0h0.351c0 0 0 0 0 0.351M168.728 62.525c-0.351-0.351-1.404-0.702-2.457-0.702 0-0.351 0.351-0.702 0.351-0.702 0.351 0 0.702 0 1.053 0 0 0 0.351 0 0.351 0.351 0 0 0 0 0-0.351 0.351 0 0.351 0 0.702 0 0.351 0.702 0.702 1.053 0 1.404M180.313 63.579c-1.755 0.351-2.809-0.351-4.564-1.405 1.053 0 2.457 0.351 3.511 0.702 0.351 0 0.702 0.351 1.053 0.703M305.292 113.43c-0.702 0.351-1.053 0.351-1.755-1.053-5.617-11.936-15.798-29.138-30.543-43.532-14.394-14.745-33.702-26.681-51.255-33.001 1.053 0.351 2.457 1.053 1.755 1.756-15.447-5.968-30.192-9.479-44.234-10.883-37.915-5.968-77.585 2.106-108.128 21.766 0.351 0.702 0.351 1.053-0.702 1.755-11.234 7.021-27.032 19.309-39.671 35.458-12.638 16.149-22.468 36.511-26.681 54.766 0.351-1.053 0.702-2.809 1.405-2.107-9.128 36.16-6.67 67.053 5.968 93.735 0.702-0.702-1.755-4.213 0.351-3.862 1.404 3.862 3.16 8.075 5.266 11.936 2.457 5.617 5.266 12.989 9.128 14.745-9.83-19.309-16.5-41.426-17.203-61.085 1.404 2.809 1.053 8.777 3.16 11.234 0.702-13.34-2.457-31.245 2.106-43.883-1.053 6.67-1.755 15.798-1.053 24.925 0 6.67 3.16 25.277 5.266 27.032-0.351-0.351-0.351-2.106 0-2.106 1.053 2.106-1.404 3.16 0.351 3.511 0-0.702 0.351-0.702 0.702-0.703 3.511 7.723 8.075 19.66 11.585 25.628 4.213 7.723 9.83 14.745 16.149 21.064 0 0.351 0.351 0.351 0.352 0.702 0.702 1.755 3.16 3.862 3.861 5.266 0.351 0.702-0.351 1.755 0 2.458 5.266 9.83 12.989 19.66 22.468 27.383 5.968 7.021 15.447 14.394 27.032 20.713 11.234 5.968 24.223 10.883 36.16 13.691 8.426 2.106 18.606 2.457 24.926 3.862 8.426 1.755 23.17-0.702 30.542-2.107 44.234-6.67 88.117-36.862 110.235-80.393 22.819-43.883 22.117-97.596 2.457-138.671" fill="#000000" fill-rule="nonzero" stroke="none" stroke-width="1" stroke-linecap="butt" stroke-linejoin="miter" stroke-miterlimit="10" stroke-dasharray="" stroke-dashoffset="0" font-family="none" font-weight="none" font-size="none" text-anchor="none" style="mix-blend-mode: normal" data-fill-palette-color="tertiary"></path></g><g transform="matrix(1,0,0,1,88,108)"><svg viewBox="0 0 144 144" height="144" width="144"><g><svg viewBox="0 0 144 144" height="144" width="144"><g><svg viewBox="0 0 144 144" height="144" width="144"><g id="textblocktransform"><svg viewBox="0 0 144 144" height="144" width="144" id="textblock"><g><svg viewBox="0 0 144 144" height="144" width="144"><g transform="matrix(1,0,0,1,54.72639148815719,46.54415587728428)"><svg viewBox="0 0 34.54721702368561 50.91168824543143" height="50.91168824543143" width="34.54721702368561"><g><svg xmlns="http://www.w3.org/2000/svg" viewBox="6 2 19 28" x="0" y="0" height="50.91168824543143" width="34.54721702368561" class="icon-o-0" data-fill-palette-color="accent" id="o-0"><g data-name="Layer 2" fill="#374151" data-fill-palette-color="accent"><path d="M22 2H9A3 3 0 0 0 6 5V27a3 3 0 0 0 3 3H22a3 3 0 0 0 3-3V5A3 3 0 0 0 22 2Zm1 25a1 1 0 0 1-1 1H9a1 1 0 0 1-1-1V5A1 1 0 0 1 9 4H22a1 1 0 0 1 1 1Z" fill="#000000" data-fill-palette-color="accent"></path><path d="M11.15 9.46v2.08a0.46 0.46 0 0 0 0.46 0.46h2.77a0.46 0.46 0 0 0 0.46-0.46V9.46a1.27 1.27 0 1 0-0.7-2.39 1.15 1.15 0 0 0-2.29 0 1.26 1.26 0 0 0-0.73-0.14 1.27 1.27 0 0 0 0 2.52Z" fill="#000000" data-fill-palette-color="accent"></path><path d="M20 15H11a1 1 0 0 0 0 2h9a1 1 0 0 0 0-2Z" fill="#000000" data-fill-palette-color="accent"></path><path d="M20 19H11a1 1 0 0 0 0 2h9a1 1 0 0 0 0-2Z" fill="#000000" data-fill-palette-color="accent"></path><path d="M20 23H11a1 1 0 0 0 0 2h9a1 1 0 0 0 0-2Z" fill="#000000" data-fill-palette-color="accent"></path></g></svg></g></svg></g><g><path d="M5.039 46.871v0c0.267 0.09 0.476 0.276 0.628 0.561 0.152 0.284 0.261 0.6 0.328 0.947 0.065 0.354 0.099 0.704 0.103 1.052 0.003 0.347-0.007 0.63-0.03 0.848v0c0.796 0.366 1.599 0.71 2.408 1.031 0.808 0.328 1.625 0.63 2.451 0.908v0c0.438 0.147 0.876 0.284 1.314 0.409 0.44 0.12 0.876 0.252 1.308 0.397v0c0.19 0.064 0.397 0.154 0.619 0.271 0.216 0.115 0.409 0.254 0.581 0.418 0.173 0.157 0.303 0.338 0.389 0.544 0.091 0.214 0.096 0.439 0.018 0.673v0c-0.094 0.279-0.248 0.475-0.462 0.587-0.216 0.118-0.45 0.184-0.702 0.199-0.258 0.012-0.521-0.005-0.788-0.053-0.258-0.051-0.492-0.112-0.702-0.182v0c-0.648-0.196-1.301-0.398-1.959-0.605-0.65-0.211-1.305-0.427-1.965-0.649v0c-0.546-0.183-1.083-0.363-1.609-0.54-0.525-0.183-1.06-0.367-1.607-0.55v0c-0.03 0.152-0.065 0.31-0.105 0.473-0.047 0.161-0.097 0.321-0.151 0.479v0c-0.043 0.127-0.112 0.291-0.207 0.492-0.096 0.201-0.212 0.388-0.348 0.562-0.134 0.167-0.288 0.299-0.461 0.396-0.168 0.099-0.35 0.116-0.547 0.05v0c-0.317-0.107-0.558-0.325-0.723-0.656-0.156-0.335-0.257-0.729-0.302-1.183-0.046-0.453-0.049-0.938-0.01-1.455 0.035-0.525 0.095-1.031 0.181-1.518 0.088-0.493 0.182-0.942 0.283-1.346 0.1-0.404 0.187-0.714 0.259-0.931v0c0.068-0.203 0.15-0.416 0.246-0.638 0.092-0.231 0.21-0.435 0.354-0.612 0.144-0.178 0.315-0.307 0.512-0.39 0.197-0.082 0.429-0.079 0.696 0.011z" fill="#000000" data-fill-palette-color="primary"></path><path d="M17.184 42.216v0c0.206 0.096 0.447 0.231 0.721 0.403 0.271 0.163 0.513 0.358 0.726 0.583 0.213 0.225 0.369 0.468 0.47 0.729 0.1 0.261 0.083 0.534-0.05 0.819v0c-0.178 0.382-0.451 0.603-0.818 0.66-0.37 0.064-0.764 0.046-1.184-0.053-0.428-0.096-0.845-0.232-1.251-0.406-0.409-0.169-0.735-0.302-0.977-0.401v0c-0.224 0.797-0.455 1.576-0.692 2.338v0c0.225 0.135 0.495 0.316 0.811 0.544 0.321 0.231 0.61 0.491 0.866 0.781 0.265 0.286 0.464 0.597 0.596 0.933 0.129 0.326 0.118 0.65-0.032 0.971v0c-0.113 0.243-0.29 0.393-0.532 0.451-0.247 0.055-0.509 0.062-0.786 0.021-0.283-0.043-0.558-0.12-0.824-0.229-0.276-0.106-0.498-0.199-0.668-0.279v0c-0.589-0.275-1.147-0.591-1.675-0.948-0.525-0.363-1.042-0.737-1.55-1.121v0c-0.269-0.199-0.58-0.444-0.932-0.735-0.352-0.29-0.71-0.608-1.073-0.955-0.354-0.35-0.694-0.723-1.019-1.118-0.319-0.393-0.586-0.795-0.802-1.205-0.206-0.414-0.336-0.833-0.389-1.257-0.047-0.421 0.022-0.832 0.209-1.233v0c0.184-0.395 0.428-0.695 0.731-0.901 0.312-0.209 0.663-0.352 1.053-0.428 0.387-0.085 0.795-0.113 1.225-0.083 0.432 0.024 0.859 0.076 1.281 0.154 0.422 0.078 0.827 0.168 1.216 0.268 0.395 0.103 0.742 0.191 1.041 0.264v0c0.73 0.178 1.459 0.381 2.187 0.61 0.728 0.229 1.435 0.503 2.121 0.823zM12.5 43.656l-0.446-0.208c-0.127-0.059-0.334-0.148-0.619-0.266-0.294-0.115-0.595-0.215-0.902-0.299-0.305-0.076-0.593-0.114-0.866-0.116-0.269 0.007-0.448 0.105-0.536 0.293v0c-0.048 0.103-0.024 0.233 0.073 0.389 0.097 0.156 0.232 0.319 0.405 0.488 0.178 0.172 0.385 0.346 0.621 0.522 0.229 0.174 0.453 0.337 0.669 0.49 0.217 0.153 0.415 0.282 0.595 0.388 0.183 0.115 0.312 0.194 0.388 0.237v0c0.237-0.636 0.443-1.275 0.618-1.918z" fill="#000000" data-fill-palette-color="primary"></path><path d="M13.225 30.989v0c0.219 0.143 0.361 0.336 0.426 0.579 0.075 0.241 0.103 0.491 0.085 0.751v0c-0.007 0.243-0.01 0.493-0.009 0.75 0.001 0.256 0.024 0.508 0.071 0.754 0.047 0.247 0.132 0.478 0.255 0.694 0.117 0.213 0.288 0.392 0.512 0.539v0c0.202 0.132 0.415 0.203 0.64 0.214 0.225 0.011 0.46 0 0.705-0.032 0.249-0.038 0.509-0.087 0.781-0.15 0.274-0.053 0.558-0.083 0.852-0.091 0.295 0.001 0.6 0.036 0.915 0.105 0.32 0.073 0.651 0.221 0.993 0.445v0c0.236 0.154 0.472 0.38 0.709 0.679 0.235 0.289 0.447 0.62 0.636 0.991 0.199 0.37 0.361 0.764 0.488 1.183 0.136 0.417 0.23 0.83 0.282 1.24 0.052 0.41 0.057 0.801 0.014 1.173-0.052 0.374-0.166 0.695-0.342 0.964v0c-0.19 0.292-0.442 0.499-0.755 0.623-0.313 0.124-0.629 0.081-0.948-0.127v0c-0.219-0.143-0.386-0.328-0.502-0.556-0.115-0.227-0.211-0.474-0.285-0.738-0.069-0.261-0.125-0.538-0.167-0.829-0.042-0.291-0.095-0.566-0.158-0.823-0.058-0.254-0.142-0.493-0.252-0.717-0.104-0.22-0.257-0.396-0.46-0.528v0c-0.275-0.179-0.619-0.264-1.033-0.254-0.42 0.006-0.861 0.026-1.323 0.06-0.466 0.04-0.924 0.049-1.373 0.026-0.448-0.012-0.84-0.129-1.177-0.348v0c-0.409-0.267-0.767-0.657-1.072-1.168-0.311-0.515-0.54-1.065-0.688-1.649-0.152-0.587-0.213-1.175-0.181-1.762 0.032-0.587 0.185-1.091 0.46-1.512v0c0.216-0.331 0.499-0.55 0.849-0.657 0.359-0.109 0.71-0.052 1.052 0.171z" fill="#000000" data-fill-palette-color="primary"></path><path d="M19.848 23.561v0c0.213 0.183 0.337 0.435 0.37 0.756 0.034 0.32 0.016 0.654-0.053 1.001-0.073 0.352-0.174 0.69-0.301 1.013-0.128 0.323-0.244 0.581-0.348 0.774v0c0.599 0.639 1.213 1.26 1.842 1.864 0.625 0.608 1.268 1.196 1.928 1.764v0c0.35 0.301 0.705 0.593 1.063 0.874 0.363 0.277 0.717 0.564 1.062 0.861v0c0.152 0.131 0.309 0.293 0.471 0.485 0.157 0.188 0.283 0.39 0.38 0.605 0.101 0.211 0.153 0.428 0.156 0.651 0.003 0.232-0.076 0.443-0.237 0.63v0c-0.192 0.223-0.408 0.347-0.649 0.37-0.245 0.028-0.487 0.001-0.726-0.081-0.244-0.086-0.481-0.201-0.71-0.346-0.22-0.145-0.414-0.289-0.581-0.433v0c-0.526-0.426-1.055-0.859-1.586-1.299-0.522-0.44-1.047-0.888-1.576-1.342v0c-0.437-0.376-0.866-0.745-1.287-1.107-0.417-0.368-0.844-0.739-1.28-1.115v0c-0.085 0.13-0.177 0.263-0.277 0.399-0.104 0.131-0.211 0.26-0.32 0.387v0c-0.087 0.102-0.213 0.227-0.377 0.378-0.164 0.15-0.342 0.28-0.534 0.389-0.187 0.104-0.379 0.169-0.577 0.193-0.193 0.029-0.368-0.025-0.525-0.16v0c-0.254-0.218-0.395-0.512-0.422-0.88-0.018-0.369 0.037-0.772 0.166-1.21 0.129-0.437 0.308-0.888 0.539-1.351 0.23-0.473 0.477-0.919 0.74-1.338 0.267-0.424 0.524-0.804 0.769-1.14 0.245-0.337 0.442-0.591 0.591-0.764v0c0.14-0.162 0.296-0.329 0.469-0.499 0.172-0.179 0.358-0.324 0.558-0.433 0.201-0.11 0.408-0.166 0.622-0.168 0.214-0.002 0.427 0.089 0.64 0.272z" fill="#000000" data-fill-palette-color="primary"></path><path d="M31.98 24.347v0c0.147 0.156 0.252 0.347 0.317 0.572v0c0.045 0.215 0.004 0.562-0.125 1.041-0.129 0.479-0.298 0.979-0.509 1.497-0.211 0.519-0.434 1-0.671 1.444-0.237 0.452-0.436 0.754-0.597 0.905v0c-0.117 0.11-0.279 0.212-0.485 0.304-0.212 0.098-0.434 0.178-0.669 0.242-0.234 0.064-0.465 0.102-0.693 0.114-0.228 0.012-0.417-0.004-0.567-0.046v0c-0.089-0.026-0.231-0.114-0.425-0.262-0.19-0.143-0.404-0.323-0.644-0.539-0.235-0.211-0.486-0.439-0.754-0.685-0.258-0.245-0.504-0.478-0.738-0.698-0.23-0.225-0.434-0.428-0.614-0.609-0.175-0.176-0.301-0.306-0.378-0.389v0c-0.289-0.308-0.609-0.668-0.962-1.082-0.347-0.418-0.682-0.853-1.003-1.303-0.322-0.46-0.599-0.926-0.831-1.398-0.232-0.472-0.374-0.926-0.426-1.364v0c-0.01-0.128 0.031-0.314 0.124-0.557 0.098-0.248 0.229-0.519 0.395-0.812 0.166-0.303 0.353-0.612 0.562-0.928 0.209-0.325 0.42-0.629 0.632-0.911 0.213-0.282 0.408-0.534 0.586-0.757 0.178-0.222 0.32-0.383 0.427-0.484v0c0.127-0.119 0.272-0.205 0.434-0.256 0.163-0.052 0.327-0.068 0.492-0.049 0.161 0.015 0.316 0.057 0.465 0.129 0.149 0.071 0.281 0.168 0.396 0.289v0c0.101 0.107 0.173 0.214 0.218 0.32 0.044 0.096 0.079 0.216 0.102 0.358v0c0.018 0.185-0.034 0.477-0.155 0.877-0.131 0.399-0.281 0.816-0.451 1.251-0.175 0.44-0.351 0.849-0.529 1.227-0.178 0.388-0.3 0.659-0.367 0.813v0c0.145 0.222 0.289 0.45 0.434 0.681 0.149 0.227 0.308 0.45 0.476 0.669v0c0.135-0.375 0.308-0.772 0.521-1.192 0.212-0.42 0.462-0.765 0.75-1.035v0c0.586-0.55 1.151-0.535 1.697 0.046v0c0.128 0.137 0.218 0.286 0.27 0.449 0.047 0.158 0.066 0.315 0.057 0.471-0.01 0.166-0.041 0.333-0.094 0.501-0.053 0.169-0.105 0.333-0.158 0.493v0c-0.135 0.384-0.296 0.765-0.483 1.143-0.197 0.378-0.393 0.751-0.59 1.119v0c0.05 0.082 0.101 0.171 0.156 0.268 0.059 0.092 0.122 0.174 0.191 0.247v0c0.11 0.117 0.227 0.227 0.352 0.331 0.125 0.094 0.25 0.193 0.374 0.296v0c0.066-0.126 0.174-0.329 0.325-0.608 0.151-0.28 0.312-0.568 0.482-0.866 0.166-0.303 0.336-0.586 0.51-0.851 0.174-0.265 0.315-0.447 0.422-0.549v0c0.122-0.115 0.262-0.196 0.42-0.242 0.158-0.047 0.317-0.064 0.478-0.049 0.156 0.019 0.311 0.067 0.464 0.142 0.149 0.071 0.279 0.165 0.389 0.282z" fill="#000000" data-fill-palette-color="primary"></path><path d="M42.236 21.378v0c-0.602 0.35-1.211 0.502-1.826 0.456-0.612-0.04-1.21-0.23-1.795-0.572-0.582-0.336-1.139-0.795-1.671-1.377-0.526-0.585-1.002-1.246-1.429-1.981v0c-0.4-0.689-0.73-1.431-0.99-2.225-0.26-0.794-0.395-1.567-0.406-2.32-0.02-0.755 0.106-1.452 0.378-2.089 0.269-0.644 0.736-1.159 1.402-1.546v0c0.649-0.377 1.291-0.517 1.927-0.423 0.642 0.092 1.255 0.34 1.838 0.745 0.578 0.408 1.123 0.92 1.636 1.536 0.51 0.625 0.966 1.283 1.366 1.972v0c0.444 0.764 0.789 1.532 1.035 2.303 0.243 0.765 0.362 1.497 0.358 2.197-0.01 0.703-0.159 1.339-0.448 1.91-0.291 0.579-0.749 1.051-1.375 1.414zM37.643 13.067v0c-0.185 0.108-0.303 0.273-0.352 0.495-0.049 0.222-0.046 0.48 0.008 0.773 0.051 0.288 0.144 0.594 0.278 0.919 0.134 0.325 0.289 0.638 0.464 0.939v0c0.202 0.347 0.425 0.679 0.67 0.994 0.239 0.318 0.485 0.589 0.739 0.813 0.245 0.222 0.483 0.378 0.714 0.469 0.231 0.091 0.439 0.082 0.624-0.026v0c0.214-0.124 0.321-0.334 0.321-0.628 0.003-0.288-0.045-0.605-0.145-0.949-0.103-0.351-0.237-0.695-0.402-1.033-0.165-0.338-0.31-0.614-0.435-0.828v0c-0.155-0.266-0.335-0.537-0.541-0.813-0.203-0.269-0.416-0.51-0.639-0.72-0.226-0.202-0.451-0.35-0.676-0.444-0.222-0.088-0.431-0.075-0.628 0.039z" fill="#000000" data-fill-palette-color="primary"></path><path d="M48.765 4.238v0c0.159 0.398 0.168 0.816 0.026 1.255-0.144 0.433-0.363 0.859-0.656 1.28-0.29 0.412-0.614 0.801-0.972 1.168-0.354 0.358-0.664 0.666-0.929 0.923v0c0.087 0.218 0.17 0.444 0.249 0.679 0.088 0.239 0.166 0.478 0.234 0.718v0c0.275-0.305 0.591-0.615 0.947-0.931 0.363-0.318 0.734-0.553 1.114-0.705v0c0.305-0.122 0.583-0.157 0.834-0.106 0.243 0.047 0.427 0.229 0.554 0.547v0c0.139 0.348 0.139 0.709 0 1.082-0.139 0.373-0.341 0.735-0.605 1.085-0.264 0.351-0.557 0.673-0.878 0.968-0.313 0.298-0.586 0.545-0.819 0.739v0c0.139 0.348 0.271 0.696 0.395 1.043 0.131 0.344 0.251 0.69 0.36 1.035v0c0.061 0.17 0.127 0.389 0.198 0.657 0.075 0.259 0.119 0.522 0.132 0.791 0.022 0.272-0.006 0.525-0.086 0.759-0.082 0.228-0.238 0.387-0.468 0.48v0c-0.218 0.087-0.45 0.057-0.696-0.09-0.243-0.155-0.487-0.379-0.733-0.67-0.246-0.291-0.487-0.631-0.722-1.02-0.235-0.389-0.452-0.779-0.651-1.168-0.196-0.383-0.365-0.741-0.505-1.075-0.134-0.336-0.238-0.594-0.31-0.774v0c-0.055-0.137-0.136-0.339-0.242-0.606-0.103-0.276-0.216-0.577-0.34-0.903-0.126-0.332-0.253-0.678-0.382-1.037-0.126-0.368-0.244-0.718-0.354-1.049-0.102-0.327-0.184-0.622-0.247-0.886-0.062-0.264-0.092-0.465-0.089-0.602v0c0.026-0.277 0.212-0.615 0.558-1.013 0.343-0.404 0.751-0.802 1.222-1.192 0.465-0.388 0.932-0.737 1.399-1.047 0.465-0.316 0.838-0.53 1.117-0.641v0c0.124-0.05 0.248-0.092 0.371-0.127 0.132-0.031 0.261-0.043 0.387-0.036 0.128 0.014 0.242 0.055 0.341 0.124 0.099 0.068 0.182 0.183 0.246 0.345z" fill="#000000" data-fill-palette-color="primary"></path><path d="M62.265 10.874v0c-0.144-0.173-0.273-0.355-0.386-0.547-0.112-0.185-0.197-0.368-0.254-0.549-0.05-0.182-0.063-0.36-0.037-0.533 0.02-0.166 0.1-0.319 0.24-0.457v0c0.11-0.113 0.244-0.169 0.4-0.168 0.162-0.006 0.341 0.032 0.538 0.114v0c-0.011-0.229-0.03-0.45-0.059-0.662-0.022-0.214-0.046-0.4-0.072-0.559v0c-0.05-0.304-0.123-0.621-0.219-0.951-0.094-0.324-0.208-0.624-0.342-0.901-0.14-0.269-0.298-0.487-0.475-0.654-0.176-0.161-0.376-0.223-0.601-0.186v0c-0.211 0.035-0.379 0.148-0.504 0.338-0.125 0.19-0.214 0.432-0.267 0.727-0.054 0.287-0.076 0.607-0.065 0.958 0.011 0.351 0.044 0.699 0.101 1.042v0c0.066 0.396 0.157 0.785 0.275 1.166 0.111 0.382 0.245 0.723 0.403 1.023 0.151 0.294 0.318 0.524 0.501 0.691 0.184 0.166 0.381 0.232 0.593 0.197v0c0.086-0.014 0.162-0.044 0.23-0.089zM65.477 10.902l0.122 0.123c0.139 0.14 0.294 0.318 0.465 0.534 0.173 0.223 0.316 0.453 0.43 0.692 0.114 0.239 0.187 0.471 0.218 0.697 0.024 0.227-0.042 0.421-0.199 0.583v0c-0.116 0.121-0.254 0.188-0.415 0.201-0.162 0.006-0.329-0.02-0.502-0.08-0.178-0.052-0.362-0.137-0.551-0.255-0.195-0.11-0.382-0.235-0.561-0.375v0c-0.261 0.308-0.568 0.566-0.921 0.773-0.353 0.208-0.757 0.349-1.213 0.425v0c-0.687 0.114-1.31 0.04-1.869-0.22-0.558-0.254-1.05-0.644-1.477-1.171-0.426-0.52-0.784-1.146-1.075-1.879-0.284-0.734-0.496-1.52-0.635-2.359v0c-0.13-0.786-0.176-1.597-0.137-2.431 0.038-0.835 0.186-1.606 0.442-2.314 0.249-0.713 0.613-1.32 1.093-1.82 0.479-0.507 1.099-0.823 1.859-0.949v0c0.74-0.122 1.391-0.027 1.952 0.288 0.568 0.313 1.053 0.763 1.455 1.347 0.396 0.586 0.724 1.258 0.986 2.016 0.256 0.765 0.449 1.541 0.578 2.328v0c0.115 0.694 0.168 1.364 0.16 2.01-0.001 0.652-0.069 1.264-0.205 1.836z" fill="#000000" data-fill-palette-color="primary"></path><path d="M76.961 6.917v0c0 0.469-0.023 0.948-0.069 1.436-0.046 0.496-0.127 0.978-0.24 1.447-0.114 0.462-0.267 0.901-0.461 1.316-0.201 0.415-0.455 0.777-0.763 1.086-0.301 0.315-0.669 0.563-1.104 0.744-0.428 0.181-0.931 0.272-1.507 0.273v0c-0.857 0.001-1.601-0.196-2.231-0.592-0.63-0.395-1.153-0.903-1.568-1.525-0.422-0.616-0.734-1.305-0.936-2.069-0.208-0.77-0.313-1.53-0.313-2.28v0c0-0.074 0-0.147 0-0.221 0-0.067 0.007-0.127 0.02-0.181v0c0.007-0.241 0.026-0.566 0.059-0.975 0.026-0.409 0.073-0.844 0.14-1.306 0.067-0.469 0.153-0.948 0.26-1.436 0.107-0.482 0.25-0.918 0.431-1.307 0.174-0.389 0.385-0.707 0.632-0.955 0.248-0.248 0.542-0.372 0.884-0.372v0c0.254 0 0.466 0.073 0.633 0.221 0.168 0.147 0.308 0.331 0.422 0.552 0.107 0.221 0.181 0.452 0.222 0.693 0.047 0.248 0.071 0.472 0.071 0.673v0c0 0.308-0.03 0.62-0.09 0.934-0.06 0.308-0.12 0.616-0.18 0.924v0c-0.087 0.489-0.16 0.978-0.22 1.467-0.053 0.482-0.08 0.981-0.079 1.497v0c0 0.261 0.014 0.579 0.041 0.955 0.027 0.375 0.098 0.733 0.211 1.074 0.114 0.348 0.275 0.643 0.483 0.884 0.214 0.248 0.503 0.371 0.864 0.371v0c0.348 0 0.629-0.121 0.844-0.362 0.207-0.235 0.361-0.519 0.462-0.854 0.107-0.328 0.174-0.673 0.2-1.035 0.027-0.362 0.04-0.673 0.039-0.935v0c-0.001-0.75-0.065-1.49-0.192-2.22-0.121-0.73-0.286-1.46-0.494-2.189v0c-0.054-0.194-0.101-0.388-0.141-0.583-0.04-0.188-0.061-0.378-0.061-0.572v0c0-0.321 0.093-0.599 0.281-0.834 0.187-0.241 0.452-0.362 0.793-0.363v0c0.281 0 0.543 0.11 0.784 0.331 0.248 0.221 0.469 0.512 0.663 0.874 0.188 0.355 0.356 0.753 0.504 1.195 0.141 0.442 0.262 0.88 0.362 1.316 0.101 0.442 0.178 0.86 0.232 1.255 0.054 0.395 0.084 0.72 0.091 0.975v0c0.013 0.114 0.02 0.224 0.021 0.331 0 0.107 0 0.221 0 0.342z" fill="#000000" data-fill-palette-color="primary"></path><path d="M86.965 11.99v0c-0.037 0.225-0.102 0.492-0.194 0.803-0.085 0.305-0.207 0.59-0.366 0.855-0.16 0.265-0.352 0.481-0.577 0.648-0.225 0.166-0.492 0.224-0.802 0.172v0c-0.416-0.069-0.701-0.273-0.856-0.611-0.161-0.339-0.25-0.724-0.266-1.154-0.022-0.438-0.004-0.876 0.055-1.315 0.053-0.439 0.094-0.789 0.124-1.048v0c-0.828-0.002-1.641-0.015-2.438-0.039v0c-0.069 0.253-0.172 0.562-0.307 0.927-0.136 0.371-0.31 0.719-0.52 1.044-0.205 0.333-0.451 0.607-0.737 0.824-0.28 0.212-0.594 0.288-0.945 0.23v0c-0.264-0.044-0.456-0.174-0.577-0.391-0.119-0.223-0.196-0.474-0.231-0.751-0.034-0.284-0.034-0.569 0-0.856 0.029-0.294 0.058-0.533 0.088-0.718v0c0.107-0.641 0.261-1.264 0.464-1.869 0.209-0.603 0.431-1.201 0.664-1.793v0c0.12-0.313 0.272-0.678 0.457-1.096 0.185-0.417 0.395-0.847 0.632-1.29 0.242-0.435 0.51-0.862 0.804-1.282 0.293-0.413 0.608-0.778 0.946-1.095 0.343-0.31 0.712-0.547 1.106-0.712 0.393-0.159 0.808-0.202 1.244-0.13v0c0.429 0.071 0.784 0.225 1.064 0.462 0.285 0.244 0.517 0.544 0.695 0.9 0.186 0.35 0.322 0.736 0.409 1.158 0.093 0.423 0.158 0.848 0.195 1.275 0.038 0.427 0.06 0.842 0.068 1.243 0.007 0.408 0.015 0.766 0.026 1.074v0c0.025 0.751 0.024 1.508-0.001 2.271-0.025 0.763-0.1 1.518-0.224 2.264zM84.321 7.864l0.081-0.486c0.023-0.139 0.053-0.361 0.09-0.667 0.032-0.314 0.047-0.63 0.046-0.95-0.009-0.314-0.049-0.602-0.121-0.865-0.079-0.258-0.221-0.403-0.426-0.437v0c-0.112-0.019-0.231 0.04-0.355 0.175-0.124 0.135-0.245 0.309-0.361 0.52-0.118 0.218-0.23 0.464-0.337 0.739-0.106 0.268-0.203 0.526-0.292 0.776-0.089 0.25-0.161 0.476-0.214 0.677-0.062 0.207-0.103 0.353-0.124 0.438v0c0.676 0.058 1.347 0.085 2.013 0.08z" fill="#000000" data-fill-palette-color="primary"></path><path d="M98.617 9.087v0c-0.252 0.742-0.652 1.349-1.201 1.82-0.543 0.474-1.176 0.839-1.9 1.095v0c0.083 0.318 0.158 0.68 0.226 1.085 0.068 0.405 0.109 0.826 0.124 1.262 0.017 0.43 0.005 0.85-0.036 1.261-0.034 0.413-0.106 0.781-0.216 1.104v0c-0.116 0.342-0.306 0.621-0.57 0.836-0.257 0.217-0.586 0.257-0.985 0.121v0c-0.33-0.112-0.561-0.367-0.695-0.766-0.131-0.405-0.215-0.865-0.253-1.38-0.04-0.509-0.057-1.02-0.052-1.535-0.001-0.517-0.024-0.938-0.069-1.264v0c-0.214 0.005-0.426 0.015-0.636 0.028-0.212 0.02-0.426 0.036-0.642 0.047v0c-0.092 0.23-0.221 0.547-0.386 0.951-0.174 0.408-0.374 0.8-0.601 1.175-0.227 0.376-0.483 0.685-0.77 0.927-0.285 0.236-0.589 0.299-0.913 0.189v0c-0.355-0.121-0.578-0.359-0.67-0.716-0.1-0.352-0.12-0.741-0.06-1.166 0.053-0.428 0.143-0.85 0.271-1.266 0.134-0.414 0.24-0.739 0.32-0.974v0c0.172-0.507 0.351-1.002 0.535-1.483 0.185-0.482 0.363-0.976 0.536-1.484v0c0.157-0.463 0.308-0.928 0.452-1.395 0.136-0.463 0.285-0.932 0.446-1.409v0c0.037-0.108 0.083-0.244 0.139-0.409 0.056-0.165 0.124-0.333 0.203-0.504 0.073-0.173 0.15-0.338 0.232-0.494 0.073-0.152 0.154-0.266 0.243-0.342v0c0.179-0.194 0.496-0.327 0.952-0.398 0.449-0.074 0.929-0.112 1.44-0.116 0.508 0.003 0.994 0.03 1.457 0.081 0.468 0.06 0.809 0.126 1.025 0.2v0c0.545 0.185 0.993 0.45 1.343 0.795 0.35 0.345 0.605 0.739 0.766 1.183 0.167 0.446 0.243 0.921 0.227 1.424-0.015 0.504-0.109 1.01-0.282 1.517zM95.553 8.302v0c0.095-0.279 0.103-0.513 0.026-0.702-0.077-0.189-0.262-0.333-0.554-0.432v0c-0.216-0.073-0.447-0.109-0.695-0.109-0.246-0.006-0.474 0.012-0.686 0.053v0c-0.25 0.863-0.521 1.712-0.812 2.547v0c0.248-0.001 0.513-0.02 0.795-0.059 0.273-0.035 0.539-0.107 0.795-0.218 0.261-0.102 0.491-0.237 0.689-0.403 0.2-0.173 0.347-0.398 0.442-0.677z" fill="#000000" data-fill-palette-color="primary"></path><path d="M105.31 19.747v0c-0.106 0.202-0.251 0.435-0.436 0.702-0.176 0.263-0.381 0.496-0.616 0.698-0.235 0.202-0.485 0.347-0.75 0.434-0.265 0.088-0.537 0.058-0.816-0.087v0c-0.374-0.196-0.581-0.479-0.622-0.848-0.047-0.372-0.011-0.766 0.109-1.18 0.116-0.423 0.271-0.834 0.464-1.231 0.188-0.401 0.336-0.72 0.446-0.958v0c-0.786-0.261-1.553-0.528-2.303-0.799v0c-0.145 0.219-0.339 0.48-0.582 0.784-0.246 0.31-0.519 0.586-0.82 0.828-0.298 0.252-0.618 0.436-0.959 0.552-0.332 0.113-0.655 0.088-0.969-0.077v0c-0.237-0.124-0.379-0.308-0.425-0.552-0.043-0.249-0.038-0.512 0.015-0.786 0.056-0.28 0.146-0.551 0.268-0.813 0.119-0.27 0.222-0.488 0.309-0.654v0c0.302-0.575 0.643-1.118 1.025-1.629 0.387-0.508 0.785-1.006 1.193-1.496v0c0.212-0.259 0.471-0.558 0.777-0.897 0.306-0.339 0.641-0.681 1.004-1.027 0.366-0.337 0.754-0.659 1.165-0.966 0.407-0.301 0.821-0.549 1.241-0.744 0.423-0.186 0.848-0.296 1.274-0.33 0.423-0.028 0.83 0.061 1.221 0.266v0c0.385 0.202 0.674 0.46 0.866 0.772 0.194 0.321 0.321 0.679 0.379 1.072 0.067 0.391 0.076 0.8 0.025 1.228-0.044 0.431-0.116 0.855-0.213 1.272-0.098 0.417-0.206 0.818-0.325 1.202-0.121 0.39-0.226 0.733-0.312 1.027v0c-0.212 0.721-0.449 1.44-0.712 2.157-0.263 0.717-0.57 1.41-0.921 2.08zM104.09 15.001l0.229-0.436c0.065-0.125 0.164-0.326 0.295-0.605 0.128-0.288 0.242-0.584 0.341-0.888 0.09-0.301 0.142-0.587 0.156-0.86 0.005-0.27-0.084-0.452-0.268-0.549v0c-0.101-0.053-0.231-0.034-0.392 0.056-0.161 0.09-0.329 0.217-0.506 0.381-0.18 0.17-0.364 0.369-0.551 0.596-0.184 0.221-0.358 0.436-0.52 0.645-0.163 0.21-0.301 0.402-0.416 0.576-0.123 0.177-0.208 0.303-0.255 0.377v0c0.624 0.267 1.253 0.502 1.887 0.707z" fill="#000000" data-fill-palette-color="primary"></path><path d="M117.518 23.031v0c-0.151 0.196-0.379 0.469-0.682 0.818-0.298 0.353-0.639 0.729-1.023 1.127-0.389 0.394-0.804 0.784-1.246 1.17-0.433 0.385-0.867 0.706-1.302 0.963-0.426 0.255-0.834 0.422-1.225 0.501-0.391 0.079-0.73 0.008-1.015-0.213v0c-0.27-0.209-0.455-0.479-0.556-0.81-0.104-0.326-0.156-0.675-0.156-1.047-0.004-0.367 0.025-0.734 0.088-1.1 0.068-0.362 0.141-0.687 0.219-0.973v0c0.167-0.599 0.326-1.195 0.479-1.788 0.153-0.593 0.321-1.182 0.503-1.769v0l-0.288 0.373c-0.299 0.387-0.598 0.769-0.899 1.147-0.295 0.382-0.617 0.738-0.965 1.07v0c-0.135 0.141-0.29 0.305-0.467 0.489-0.182 0.181-0.37 0.353-0.564 0.517-0.198 0.169-0.407 0.303-0.629 0.403-0.216 0.104-0.426 0.141-0.63 0.11v0c-0.116-0.014-0.213-0.042-0.29-0.085-0.068-0.044-0.152-0.088-0.254-0.132v0l-0.039-0.031c-0.207-0.16-0.326-0.366-0.359-0.62-0.037-0.248-0.021-0.52 0.045-0.815 0.077-0.296 0.192-0.605 0.347-0.925 0.15-0.315 0.312-0.618 0.485-0.908 0.173-0.29 0.342-0.552 0.507-0.788 0.167-0.227 0.301-0.406 0.404-0.539v0c0.16-0.207 0.403-0.505 0.73-0.896 0.323-0.385 0.702-0.799 1.136-1.242 0.431-0.437 0.892-0.876 1.385-1.317 0.488-0.435 0.971-0.803 1.448-1.103 0.477-0.3 0.924-0.501 1.341-0.602 0.422-0.097 0.776-0.035 1.062 0.186v0c0.281 0.217 0.446 0.518 0.496 0.903 0.055 0.389 0.054 0.795-0.001 1.218-0.06 0.428-0.156 0.848-0.289 1.262-0.133 0.413-0.244 0.759-0.332 1.038v0c-0.174 0.543-0.349 1.076-0.525 1.6-0.18 0.529-0.369 1.064-0.567 1.606v0c-0.007 0.02-0.028 0.08-0.063 0.18-0.03 0.104-0.067 0.219-0.113 0.344v0c-0.045 0.135-0.094 0.291-0.147 0.47v0c0.09-0.117 0.153-0.203 0.188-0.261 0.037-0.048 0.07-0.09 0.098-0.127 0.033-0.042 0.074-0.095 0.123-0.159 0.049-0.064 0.125-0.162 0.227-0.294v0c0.219-0.305 0.44-0.608 0.664-0.909 0.224-0.301 0.446-0.595 0.668-0.881v0c0.098-0.127 0.236-0.3 0.413-0.519 0.181-0.224 0.381-0.455 0.598-0.692 0.218-0.238 0.451-0.469 0.699-0.692 0.243-0.227 0.489-0.414 0.738-0.56 0.249-0.147 0.49-0.235 0.725-0.265 0.239-0.035 0.451 0.018 0.636 0.161v0c0.228 0.176 0.356 0.41 0.384 0.703 0.029 0.302-0.003 0.624-0.098 0.965-0.099 0.347-0.243 0.709-0.433 1.087-0.19 0.378-0.387 0.737-0.592 1.079-0.214 0.343-0.42 0.653-0.618 0.932-0.194 0.273-0.35 0.487-0.469 0.64z" fill="#000000" data-fill-palette-color="primary"></path><path d="M127.512 27.437v0c-0.208 0.189-0.474 0.28-0.795 0.274-0.322-0.006-0.651-0.065-0.987-0.177-0.34-0.116-0.663-0.258-0.968-0.425-0.305-0.167-0.546-0.314-0.725-0.441v0c-0.708 0.515-1.401 1.048-2.077 1.598-0.681 0.545-1.344 1.11-1.99 1.694v0c-0.342 0.31-0.676 0.626-1 0.946-0.32 0.326-0.648 0.641-0.985 0.947v0c-0.149 0.135-0.329 0.271-0.539 0.408-0.206 0.132-0.422 0.233-0.648 0.302-0.222 0.074-0.443 0.099-0.665 0.074-0.231-0.026-0.43-0.13-0.596-0.314v0c-0.198-0.218-0.293-0.448-0.287-0.69 0.003-0.246 0.059-0.483 0.171-0.71 0.116-0.231 0.259-0.452 0.43-0.661 0.171-0.2 0.339-0.374 0.503-0.523v0c0.488-0.469 0.983-0.94 1.485-1.413 0.502-0.464 1.011-0.929 1.527-1.397v0c0.427-0.387 0.846-0.767 1.258-1.14 0.416-0.368 0.838-0.746 1.265-1.133v0c-0.118-0.101-0.239-0.209-0.361-0.323-0.117-0.12-0.232-0.241-0.345-0.366v0c-0.09-0.099-0.199-0.24-0.328-0.421-0.129-0.182-0.235-0.374-0.32-0.578-0.08-0.198-0.12-0.397-0.12-0.596-0.005-0.195 0.07-0.362 0.224-0.501v0c0.248-0.225 0.557-0.328 0.926-0.31 0.368 0.028 0.762 0.132 1.179 0.314 0.418 0.182 0.842 0.416 1.274 0.703 0.441 0.287 0.853 0.587 1.236 0.9 0.387 0.318 0.733 0.619 1.036 0.905 0.304 0.285 0.532 0.512 0.685 0.681v0c0.144 0.159 0.289 0.334 0.437 0.526 0.156 0.193 0.277 0.395 0.361 0.608 0.084 0.213 0.114 0.425 0.089 0.638-0.025 0.212-0.141 0.413-0.35 0.601z" fill="#000000" data-fill-palette-color="primary"></path><path d="M131.513 32.854v0c-0.172 0.127-0.354 0.203-0.544 0.227-0.2 0.023-0.393 0.003-0.58-0.059-0.188-0.052-0.373-0.133-0.553-0.241-0.18-0.108-0.337-0.225-0.471-0.351v0c-1.041 0.744-2.062 1.441-3.065 2.09-1.003 0.649-2.063 1.287-3.183 1.914v0l0.06 0.081c0.107 0.145 0.197 0.3 0.268 0.464 0.075 0.169 0.117 0.338 0.125 0.507 0.003 0.173-0.027 0.336-0.088 0.49-0.065 0.148-0.182 0.284-0.348 0.407v0c-0.205 0.151-0.433 0.22-0.685 0.206-0.256-0.019-0.515-0.094-0.778-0.224-0.272-0.132-0.541-0.304-0.806-0.516-0.274-0.214-0.528-0.438-0.761-0.675-0.238-0.232-0.453-0.461-0.644-0.685-0.197-0.221-0.349-0.404-0.456-0.55v0c-0.08-0.108-0.174-0.246-0.282-0.416-0.109-0.17-0.193-0.34-0.254-0.512-0.06-0.172-0.083-0.343-0.067-0.513 0.02-0.165 0.108-0.305 0.265-0.42v0c0.194-0.143 0.394-0.233 0.6-0.269 0.207-0.036 0.417-0.033 0.631 0.008 0.214 0.042 0.414 0.115 0.599 0.22 0.195 0.106 0.373 0.228 0.534 0.367v0c0.545-0.311 1.087-0.62 1.626-0.927 0.535-0.312 1.065-0.649 1.589-1.011v0c0.538-0.365 1.067-0.726 1.585-1.084 0.518-0.358 1.041-0.715 1.569-1.071v0c-0.059-0.057-0.11-0.11-0.156-0.16-0.045-0.05-0.086-0.099-0.121-0.148v0c-0.096-0.129-0.184-0.277-0.265-0.442-0.075-0.169-0.128-0.342-0.159-0.519-0.022-0.176-0.013-0.344 0.026-0.506 0.033-0.158 0.128-0.294 0.284-0.41v0c0.312-0.231 0.664-0.291 1.054-0.18 0.39 0.111 0.775 0.306 1.156 0.583 0.374 0.281 0.718 0.594 1.03 0.938 0.322 0.345 0.566 0.631 0.733 0.857v0c0.096 0.129 0.213 0.305 0.352 0.527 0.134 0.226 0.244 0.465 0.33 0.718 0.092 0.248 0.137 0.49 0.136 0.724 0.004 0.23-0.091 0.417-0.286 0.561z" fill="#000000" data-fill-palette-color="primary"></path><path d="M133.724 45.445v0c-0.217 0.119-0.535 0.278-0.953 0.476-0.415 0.204-0.878 0.412-1.388 0.623-0.514 0.205-1.051 0.396-1.611 0.574-0.551 0.18-1.077 0.3-1.578 0.36-0.492 0.064-0.933 0.053-1.322-0.031-0.39-0.084-0.672-0.285-0.846-0.602v0c-0.164-0.3-0.226-0.621-0.185-0.964 0.035-0.34 0.127-0.681 0.277-1.022 0.143-0.338 0.317-0.662 0.52-0.973 0.207-0.305 0.404-0.573 0.591-0.804v0c0.392-0.482 0.777-0.964 1.154-1.447 0.377-0.482 0.767-0.955 1.17-1.419v0l-0.414 0.227c-0.429 0.235-0.856 0.465-1.282 0.691-0.423 0.232-0.861 0.43-1.313 0.593v0c-0.18 0.076-0.388 0.163-0.624 0.262-0.239 0.093-0.48 0.175-0.724 0.248-0.249 0.075-0.495 0.115-0.737 0.117-0.239 0.009-0.447-0.042-0.622-0.152v0c-0.101-0.059-0.178-0.124-0.232-0.193-0.044-0.067-0.104-0.141-0.179-0.223v0l-0.024-0.044c-0.126-0.229-0.152-0.466-0.081-0.712 0.066-0.242 0.189-0.485 0.368-0.728 0.189-0.241 0.418-0.477 0.688-0.71 0.264-0.229 0.533-0.441 0.808-0.637 0.274-0.196 0.535-0.369 0.781-0.52 0.243-0.141 0.439-0.252 0.585-0.332v0c0.229-0.126 0.572-0.302 1.028-0.529 0.45-0.224 0.963-0.451 1.538-0.682 0.57-0.228 1.169-0.446 1.797-0.653 0.622-0.203 1.211-0.347 1.768-0.43 0.557-0.084 1.047-0.089 1.47-0.015 0.426 0.08 0.725 0.278 0.899 0.595v0c0.171 0.311 0.201 0.653 0.093 1.026-0.106 0.379-0.268 0.75-0.489 1.116-0.226 0.368-0.483 0.715-0.77 1.04-0.287 0.326-0.527 0.598-0.72 0.819v0c-0.377 0.428-0.75 0.847-1.121 1.256-0.377 0.413-0.765 0.828-1.163 1.244v0c-0.014 0.016-0.058 0.062-0.13 0.14-0.069 0.084-0.149 0.173-0.241 0.27v0c-0.095 0.105-0.203 0.229-0.323 0.372v0c0.129-0.071 0.222-0.125 0.277-0.164 0.053-0.029 0.1-0.055 0.141-0.077 0.047-0.026 0.106-0.058 0.176-0.097 0.07-0.039 0.179-0.098 0.326-0.178v0c0.322-0.192 0.647-0.381 0.972-0.567 0.326-0.186 0.647-0.366 0.964-0.54v0c0.141-0.077 0.336-0.181 0.587-0.31 0.256-0.133 0.531-0.264 0.825-0.395 0.295-0.131 0.601-0.249 0.918-0.354 0.314-0.111 0.614-0.183 0.9-0.218 0.286-0.035 0.543-0.019 0.77 0.047 0.233 0.063 0.406 0.198 0.519 0.403v0c0.138 0.253 0.162 0.518 0.071 0.798-0.094 0.288-0.253 0.57-0.477 0.845-0.229 0.278-0.507 0.553-0.832 0.823-0.326 0.27-0.65 0.521-0.974 0.751-0.333 0.228-0.646 0.43-0.939 0.607-0.287 0.173-0.516 0.306-0.687 0.399z" fill="#000000" data-fill-palette-color="primary"></path><path d="M132.732 56.377v0c-0.202 0.07-0.419 0.089-0.65 0.056v0c-0.214-0.046-0.514-0.226-0.9-0.539-0.385-0.313-0.772-0.671-1.16-1.075-0.388-0.404-0.737-0.804-1.044-1.201-0.316-0.401-0.511-0.705-0.584-0.914v0c-0.053-0.152-0.079-0.341-0.08-0.568-0.003-0.233 0.014-0.469 0.052-0.709 0.037-0.24 0.097-0.466 0.179-0.679 0.082-0.213 0.173-0.379 0.273-0.499v0c0.061-0.071 0.198-0.164 0.413-0.281 0.208-0.115 0.46-0.238 0.754-0.369 0.289-0.129 0.599-0.265 0.933-0.408 0.329-0.135 0.642-0.265 0.938-0.39 0.299-0.118 0.568-0.222 0.807-0.312 0.232-0.088 0.402-0.15 0.509-0.187v0c0.399-0.138 0.859-0.284 1.38-0.437 0.523-0.146 1.057-0.275 1.599-0.385 0.551-0.106 1.09-0.169 1.615-0.189 0.525-0.019 0.998 0.036 1.419 0.167v0c0.121 0.043 0.274 0.157 0.459 0.34 0.187 0.19 0.38 0.421 0.58 0.692 0.209 0.275 0.415 0.572 0.618 0.892 0.212 0.324 0.403 0.64 0.574 0.949 0.171 0.309 0.322 0.59 0.452 0.842 0.13 0.253 0.22 0.448 0.268 0.588v0c0.057 0.164 0.076 0.332 0.057 0.501-0.019 0.17-0.071 0.326-0.156 0.469-0.079 0.141-0.181 0.265-0.307 0.373-0.126 0.107-0.268 0.189-0.426 0.243v0c-0.139 0.048-0.266 0.071-0.38 0.068-0.106 0.001-0.229-0.016-0.369-0.052v0c-0.177-0.059-0.422-0.226-0.737-0.499-0.311-0.282-0.63-0.589-0.958-0.922-0.33-0.339-0.632-0.667-0.905-0.984-0.281-0.321-0.479-0.543-0.593-0.666v0c-0.262 0.041-0.529 0.081-0.799 0.118-0.268 0.044-0.537 0.098-0.805 0.163v0c0.287 0.276 0.579 0.596 0.876 0.961 0.297 0.365 0.51 0.734 0.639 1.107v0c0.264 0.759 0.019 1.27-0.733 1.531v0c-0.177 0.062-0.351 0.083-0.521 0.064-0.163-0.021-0.314-0.068-0.453-0.141-0.147-0.077-0.287-0.173-0.419-0.29-0.133-0.117-0.261-0.232-0.386-0.345v0c-0.296-0.28-0.578-0.583-0.847-0.907-0.265-0.333-0.525-0.665-0.781-0.995v0c-0.095 0.012-0.198 0.023-0.308 0.033-0.108 0.016-0.209 0.041-0.304 0.074v0c-0.152 0.053-0.3 0.115-0.446 0.186-0.137 0.076-0.278 0.15-0.422 0.222v0c0.088 0.111 0.229 0.293 0.422 0.544 0.194 0.252 0.392 0.516 0.595 0.793 0.209 0.275 0.399 0.546 0.569 0.813 0.171 0.267 0.28 0.47 0.329 0.609v0c0.055 0.158 0.072 0.319 0.05 0.482-0.021 0.163-0.071 0.315-0.15 0.456-0.081 0.134-0.187 0.256-0.319 0.366-0.126 0.107-0.265 0.188-0.417 0.241z" fill="#000000" data-fill-palette-color="primary"></path><path d="M17.977 95.659v0c-0.267 0.09-0.546 0.067-0.839-0.068-0.293-0.135-0.57-0.321-0.834-0.557-0.265-0.243-0.504-0.502-0.716-0.777-0.212-0.275-0.375-0.506-0.488-0.695v0c-0.855 0.188-1.703 0.399-2.543 0.632-0.842 0.226-1.676 0.478-2.502 0.755v0c-0.438 0.147-0.87 0.303-1.295 0.466-0.423 0.17-0.851 0.328-1.282 0.473v0c-0.19 0.064-0.41 0.116-0.657 0.157-0.241 0.039-0.48 0.044-0.715 0.018-0.233-0.021-0.446-0.087-0.639-0.199-0.201-0.116-0.342-0.292-0.421-0.527v0c-0.094-0.279-0.089-0.528 0.015-0.746 0.101-0.225 0.248-0.419 0.44-0.582 0.199-0.166 0.419-0.31 0.66-0.434 0.237-0.115 0.46-0.207 0.67-0.278v0c0.635-0.234 1.277-0.468 1.926-0.7 0.645-0.224 1.298-0.446 1.959-0.668v0c0.546-0.183 1.083-0.363 1.609-0.54 0.529-0.171 1.067-0.348 1.613-0.531v0c-0.068-0.14-0.135-0.287-0.201-0.441-0.06-0.157-0.116-0.314-0.169-0.473v0c-0.043-0.127-0.086-0.299-0.132-0.518-0.045-0.218-0.066-0.437-0.061-0.657 0.006-0.214 0.049-0.412 0.129-0.594 0.074-0.18 0.209-0.303 0.405-0.37v0c0.317-0.107 0.642-0.078 0.973 0.087 0.327 0.173 0.645 0.426 0.954 0.76 0.31 0.334 0.605 0.719 0.886 1.155 0.289 0.44 0.546 0.88 0.772 1.32 0.228 0.446 0.423 0.861 0.587 1.244 0.164 0.383 0.282 0.682 0.354 0.898v0c0.068 0.203 0.131 0.422 0.189 0.657 0.066 0.239 0.095 0.473 0.087 0.702-0.008 0.229-0.066 0.435-0.173 0.62-0.108 0.184-0.295 0.321-0.561 0.411z" fill="#000000" data-fill-palette-color="primary"></path><path d="M13.055 106.584v0c-0.206 0.096-0.464 0.194-0.772 0.293-0.299 0.103-0.604 0.163-0.913 0.182-0.309 0.019-0.596-0.018-0.859-0.109-0.264-0.091-0.463-0.279-0.596-0.564v0c-0.178-0.382-0.172-0.733 0.019-1.051 0.189-0.324 0.456-0.615 0.801-0.873 0.349-0.266 0.721-0.499 1.116-0.698 0.392-0.205 0.704-0.369 0.935-0.491v0c-0.467-0.684-0.916-1.361-1.347-2.032v0c-0.248 0.086-0.561 0.177-0.938 0.271-0.383 0.097-0.768 0.151-1.155 0.162-0.39 0.019-0.756-0.028-1.097-0.142-0.333-0.111-0.574-0.327-0.724-0.649v0c-0.113-0.243-0.114-0.475-0.004-0.697 0.117-0.225 0.28-0.43 0.489-0.616 0.215-0.189 0.45-0.35 0.705-0.484 0.259-0.143 0.473-0.254 0.643-0.333v0c0.589-0.275 1.19-0.499 1.803-0.675 0.616-0.169 1.234-0.325 1.855-0.466v0c0.326-0.078 0.713-0.159 1.162-0.243 0.449-0.084 0.923-0.153 1.421-0.208 0.496-0.046 1-0.067 1.512-0.063 0.506 0.008 0.986 0.061 1.438 0.161 0.45 0.108 0.854 0.278 1.213 0.509 0.353 0.234 0.623 0.552 0.81 0.953v0c0.184 0.395 0.258 0.774 0.221 1.138-0.04 0.373-0.156 0.734-0.348 1.083-0.183 0.352-0.425 0.682-0.724 0.991-0.296 0.316-0.61 0.61-0.941 0.883-0.331 0.273-0.66 0.526-0.987 0.759-0.333 0.237-0.623 0.446-0.871 0.628v0c-0.605 0.445-1.23 0.873-1.873 1.284-0.643 0.411-1.308 0.776-1.994 1.097zM14.962 102.069l0.446-0.208c0.127-0.059 0.328-0.16 0.602-0.303 0.277-0.151 0.546-0.318 0.809-0.499 0.254-0.185 0.469-0.381 0.645-0.589 0.168-0.211 0.207-0.411 0.12-0.599v0c-0.048-0.103-0.163-0.168-0.346-0.194-0.182-0.026-0.393-0.027-0.633-0.004-0.246 0.026-0.513 0.073-0.799 0.14-0.28 0.064-0.549 0.13-0.806 0.199-0.257 0.068-0.483 0.137-0.68 0.206-0.206 0.066-0.349 0.115-0.43 0.146v0c0.335 0.59 0.692 1.159 1.072 1.705z" fill="#000000" data-fill-palette-color="primary"></path><path d="M25.19 108.071v0c-0.219 0.143-0.452 0.195-0.701 0.158-0.251-0.028-0.491-0.103-0.722-0.224v0c-0.22-0.104-0.448-0.208-0.683-0.31-0.235-0.103-0.475-0.182-0.719-0.238-0.245-0.056-0.491-0.072-0.738-0.046-0.242 0.022-0.475 0.106-0.699 0.252v0c-0.202 0.132-0.353 0.299-0.454 0.5-0.1 0.202-0.185 0.421-0.254 0.658-0.065 0.243-0.125 0.501-0.177 0.776-0.062 0.272-0.148 0.545-0.259 0.817-0.12 0.27-0.274 0.535-0.464 0.795-0.196 0.264-0.465 0.507-0.807 0.731v0c-0.236 0.154-0.538 0.279-0.906 0.375-0.359 0.099-0.747 0.16-1.164 0.184-0.418 0.033-0.844 0.024-1.279-0.028-0.436-0.043-0.852-0.123-1.248-0.241-0.396-0.117-0.756-0.27-1.08-0.459-0.321-0.198-0.57-0.432-0.746-0.701v0c-0.19-0.292-0.279-0.605-0.267-0.941 0.012-0.336 0.179-0.609 0.499-0.817v0c0.219-0.143 0.455-0.221 0.71-0.236 0.255-0.014 0.518-0.003 0.791 0.035 0.267 0.042 0.542 0.102 0.825 0.181 0.283 0.079 0.556 0.141 0.818 0.186 0.256 0.049 0.508 0.068 0.757 0.057 0.243-0.007 0.466-0.076 0.668-0.208v0c0.275-0.179 0.491-0.461 0.649-0.843 0.163-0.387 0.322-0.798 0.477-1.236 0.151-0.443 0.327-0.865 0.528-1.268 0.191-0.405 0.455-0.717 0.792-0.937v0c0.409-0.267 0.91-0.438 1.501-0.513 0.597-0.078 1.192-0.067 1.785 0.034 0.599 0.097 1.161 0.278 1.687 0.543 0.525 0.265 0.925 0.608 1.199 1.028v0c0.216 0.331 0.303 0.678 0.26 1.042-0.044 0.373-0.238 0.671-0.579 0.894z" fill="#000000" data-fill-palette-color="primary"></path><path d="M30.194 114.413v0c-0.213 0.183-0.481 0.268-0.803 0.253-0.322-0.015-0.649-0.082-0.982-0.202-0.337-0.125-0.656-0.275-0.956-0.449-0.3-0.175-0.538-0.328-0.714-0.46v0c-0.721 0.497-1.427 1.011-2.117 1.543-0.695 0.527-1.373 1.075-2.033 1.643v0c-0.35 0.301-0.692 0.608-1.024 0.92-0.328 0.317-0.664 0.624-1.009 0.922v0c-0.152 0.131-0.336 0.262-0.55 0.393-0.209 0.127-0.427 0.222-0.655 0.285-0.224 0.069-0.446 0.088-0.667 0.057-0.23-0.032-0.426-0.141-0.588-0.329v0c-0.192-0.223-0.282-0.456-0.268-0.697 0.009-0.246 0.072-0.481 0.188-0.705 0.122-0.228 0.271-0.445 0.448-0.65 0.176-0.196 0.348-0.366 0.516-0.51v0c0.5-0.456 1.007-0.915 1.521-1.375 0.514-0.451 1.034-0.903 1.562-1.357v0c0.437-0.376 0.866-0.745 1.287-1.107 0.426-0.357 0.857-0.724 1.294-1.1v0c-0.116-0.104-0.233-0.215-0.353-0.332-0.114-0.123-0.226-0.247-0.335-0.375v0c-0.087-0.102-0.193-0.245-0.317-0.429-0.124-0.185-0.225-0.38-0.305-0.586-0.075-0.2-0.11-0.4-0.104-0.599 0-0.195 0.079-0.36 0.236-0.495v0c0.254-0.218 0.565-0.314 0.934-0.286 0.368 0.037 0.758 0.152 1.17 0.344 0.413 0.193 0.831 0.438 1.256 0.735 0.433 0.299 0.838 0.609 1.212 0.932 0.379 0.328 0.717 0.638 1.013 0.931 0.296 0.293 0.518 0.526 0.667 0.699v0c0.14 0.162 0.281 0.342 0.423 0.537 0.151 0.197 0.267 0.402 0.345 0.617 0.079 0.215 0.103 0.428 0.073 0.64-0.03 0.211-0.152 0.409-0.365 0.592z" fill="#000000" data-fill-palette-color="primary"></path><path d="M29.067 125.628v0c-0.147 0.156-0.33 0.273-0.55 0.351v0c-0.211 0.059-0.56 0.039-1.047-0.06-0.486-0.098-0.995-0.237-1.526-0.414-0.531-0.178-1.026-0.371-1.483-0.579-0.466-0.208-0.78-0.388-0.94-0.539v0c-0.117-0.11-0.229-0.265-0.335-0.466-0.111-0.205-0.205-0.422-0.283-0.652-0.078-0.23-0.13-0.458-0.157-0.684-0.026-0.227-0.022-0.416 0.011-0.569v0c0.021-0.091 0.099-0.238 0.235-0.441 0.131-0.198 0.297-0.424 0.498-0.677 0.196-0.248 0.408-0.513 0.636-0.794 0.228-0.272 0.445-0.533 0.651-0.781 0.21-0.243 0.4-0.46 0.569-0.65 0.165-0.185 0.286-0.319 0.364-0.403v0c0.289-0.308 0.629-0.65 1.02-1.026 0.396-0.372 0.809-0.734 1.238-1.084 0.439-0.35 0.887-0.656 1.343-0.916 0.456-0.261 0.901-0.431 1.334-0.511v0c0.127-0.018 0.315 0.011 0.565 0.089 0.254 0.082 0.532 0.197 0.835 0.343 0.313 0.147 0.633 0.314 0.961 0.503 0.338 0.188 0.654 0.38 0.949 0.575 0.295 0.195 0.559 0.373 0.791 0.536 0.233 0.163 0.403 0.295 0.51 0.397v0c0.127 0.119 0.221 0.258 0.283 0.417 0.062 0.159 0.088 0.322 0.08 0.488-0.004 0.161-0.037 0.319-0.099 0.472-0.062 0.154-0.15 0.291-0.265 0.414v0c-0.101 0.107-0.203 0.186-0.305 0.237-0.093 0.05-0.21 0.092-0.351 0.124v0c-0.184 0.029-0.479-0.004-0.885-0.1-0.406-0.106-0.832-0.23-1.276-0.372-0.45-0.147-0.869-0.297-1.258-0.451-0.398-0.153-0.676-0.258-0.835-0.315v0c-0.213 0.158-0.431 0.317-0.653 0.475-0.218 0.163-0.43 0.336-0.637 0.518v0c0.383 0.111 0.79 0.26 1.222 0.445 0.432 0.185 0.792 0.413 1.08 0.684v0c0.586 0.55 0.606 1.116 0.06 1.696v0c-0.128 0.137-0.272 0.236-0.431 0.298-0.155 0.057-0.31 0.086-0.466 0.086-0.166 0-0.335-0.02-0.507-0.063-0.172-0.042-0.339-0.084-0.501-0.126v0c-0.392-0.111-0.782-0.248-1.172-0.411-0.389-0.173-0.774-0.345-1.153-0.518v0c-0.079 0.055-0.165 0.112-0.258 0.171-0.088 0.064-0.166 0.133-0.235 0.206v0c-0.11 0.117-0.213 0.241-0.308 0.373-0.086 0.131-0.177 0.261-0.272 0.392v0c0.13 0.058 0.339 0.153 0.627 0.286 0.288 0.133 0.587 0.275 0.895 0.427 0.313 0.147 0.606 0.298 0.881 0.455 0.275 0.157 0.466 0.286 0.574 0.388v0c0.122 0.115 0.212 0.249 0.268 0.403 0.057 0.155 0.083 0.312 0.079 0.474-0.009 0.157-0.047 0.314-0.113 0.473-0.062 0.154-0.147 0.289-0.258 0.406z" fill="#000000" data-fill-palette-color="primary"></path><path d="M36.851 134.771v0c-0.602-0.35-1.036-0.803-1.301-1.36-0.269-0.551-0.4-1.165-0.394-1.843 0.003-0.672 0.126-1.383 0.368-2.134 0.248-0.747 0.585-1.488 1.012-2.223v0c0.4-0.689 0.881-1.343 1.442-1.963 0.561-0.619 1.165-1.12 1.813-1.502 0.646-0.392 1.313-0.628 2.003-0.708 0.693-0.086 1.372 0.065 2.038 0.452v0c0.649 0.377 1.089 0.865 1.321 1.464 0.238 0.603 0.326 1.258 0.265 1.966-0.068 0.704-0.243 1.431-0.524 2.182-0.29 0.753-0.635 1.474-1.036 2.163v0c-0.444 0.764-0.94 1.445-1.487 2.041-0.544 0.59-1.121 1.057-1.73 1.4-0.615 0.34-1.242 0.525-1.881 0.558-0.647 0.035-1.284-0.13-1.909-0.493zM41.792 126.662v0c-0.185-0.108-0.387-0.128-0.604-0.061-0.217 0.067-0.44 0.198-0.668 0.391-0.225 0.187-0.445 0.419-0.66 0.697-0.215 0.278-0.411 0.567-0.586 0.868v0c-0.202 0.347-0.379 0.706-0.531 1.074-0.158 0.365-0.271 0.714-0.34 1.046-0.071 0.323-0.089 0.607-0.053 0.852 0.036 0.245 0.146 0.422 0.332 0.529v0c0.214 0.124 0.449 0.114 0.704-0.032 0.252-0.14 0.503-0.339 0.753-0.597 0.254-0.263 0.486-0.55 0.698-0.861 0.212-0.311 0.379-0.573 0.503-0.788v0c0.155-0.266 0.3-0.557 0.438-0.873 0.133-0.31 0.236-0.614 0.309-0.912 0.064-0.296 0.08-0.565 0.05-0.807-0.033-0.236-0.148-0.411-0.345-0.526z" fill="#000000" data-fill-palette-color="primary"></path><path d="M54.326 128.734v0c-0.159 0.398-0.441 0.707-0.847 0.927-0.403 0.214-0.856 0.372-1.358 0.474-0.494 0.098-0.997 0.157-1.51 0.175-0.504 0.015-0.94 0.024-1.309 0.028v0c-0.087 0.218-0.183 0.439-0.287 0.664-0.101 0.234-0.21 0.461-0.327 0.681v0c0.409-0.031 0.852-0.038 1.328-0.02 0.483 0.02 0.913 0.106 1.293 0.257v0c0.305 0.122 0.53 0.288 0.677 0.498 0.143 0.201 0.151 0.461 0.025 0.778v0c-0.139 0.348-0.388 0.609-0.747 0.784-0.358 0.174-0.754 0.297-1.186 0.369-0.433 0.072-0.867 0.104-1.304 0.095-0.433 0-0.8-0.01-1.102-0.03v0c-0.139 0.348-0.284 0.691-0.433 1.028-0.143 0.34-0.294 0.672-0.453 0.998v0c-0.073 0.165-0.177 0.369-0.31 0.612-0.124 0.239-0.274 0.46-0.45 0.664-0.172 0.213-0.367 0.376-0.585 0.491-0.216 0.108-0.44 0.116-0.67 0.024v0c-0.218-0.087-0.365-0.269-0.442-0.544-0.068-0.28-0.091-0.61-0.069-0.991 0.022-0.381 0.083-0.793 0.181-1.237 0.098-0.444 0.21-0.876 0.333-1.294 0.122-0.413 0.247-0.788 0.375-1.127 0.134-0.336 0.238-0.594 0.31-0.774v0c0.055-0.137 0.136-0.339 0.243-0.607 0.116-0.271 0.241-0.567 0.376-0.888 0.138-0.327 0.284-0.665 0.439-1.014 0.163-0.353 0.318-0.688 0.466-1.004 0.152-0.307 0.296-0.578 0.433-0.812 0.137-0.234 0.254-0.4 0.35-0.498v0c0.21-0.183 0.578-0.299 1.103-0.349 0.527-0.056 1.096-0.063 1.707-0.02 0.604 0.04 1.183 0.109 1.735 0.207 0.555 0.092 0.972 0.194 1.252 0.306v0c0.124 0.05 0.243 0.104 0.356 0.164 0.117 0.068 0.218 0.149 0.304 0.24 0.083 0.098 0.137 0.206 0.162 0.325 0.025 0.118 0.005 0.258-0.059 0.42z" fill="#000000" data-fill-palette-color="primary"></path><path d="M61.596 140.039v0c-0.081-0.21-0.144-0.424-0.189-0.642-0.046-0.211-0.068-0.412-0.063-0.601 0.011-0.188 0.056-0.361 0.136-0.517 0.072-0.151 0.197-0.269 0.375-0.356v0c0.141-0.072 0.285-0.082 0.432-0.03 0.155 0.046 0.313 0.14 0.473 0.282v0c0.064-0.22 0.116-0.436 0.158-0.646 0.048-0.209 0.085-0.393 0.112-0.552v0c0.05-0.304 0.084-0.628 0.099-0.971 0.015-0.337 0.004-0.658-0.034-0.963-0.045-0.299-0.125-0.557-0.239-0.772-0.115-0.209-0.284-0.332-0.509-0.37v0c-0.211-0.035-0.407 0.018-0.586 0.158-0.179 0.14-0.341 0.341-0.486 0.601-0.144 0.254-0.267 0.55-0.371 0.886-0.103 0.336-0.183 0.676-0.24 1.019v0c-0.066 0.396-0.104 0.794-0.116 1.193-0.018 0.397-0.001 0.764 0.053 1.098 0.048 0.327 0.132 0.599 0.251 0.816 0.12 0.217 0.286 0.343 0.498 0.377v0c0.086 0.014 0.168 0.011 0.246-0.01zM64.628 141.101l0.076 0.155c0.086 0.177 0.175 0.396 0.268 0.656 0.092 0.266 0.153 0.531 0.184 0.794 0.031 0.263 0.025 0.506-0.019 0.73-0.05 0.222-0.176 0.385-0.376 0.487v0c-0.149 0.077-0.301 0.096-0.457 0.057-0.155-0.046-0.305-0.125-0.449-0.237-0.152-0.107-0.299-0.246-0.44-0.419-0.149-0.167-0.286-0.346-0.41-0.537v0c-0.347 0.207-0.72 0.353-1.121 0.436-0.401 0.083-0.829 0.087-1.285 0.011v0c-0.687-0.114-1.253-0.384-1.699-0.81-0.446-0.42-0.787-0.948-1.021-1.585-0.235-0.63-0.373-1.338-0.412-2.125-0.033-0.786 0.02-1.599 0.16-2.438v0c0.13-0.786 0.348-1.568 0.653-2.346 0.305-0.778 0.693-1.46 1.163-2.047 0.465-0.595 1.006-1.052 1.622-1.371 0.617-0.325 1.306-0.425 2.066-0.3v0c0.74 0.122 1.325 0.423 1.755 0.902 0.437 0.48 0.751 1.061 0.943 1.744 0.186 0.682 0.28 1.424 0.284 2.226-0.005 0.807-0.072 1.604-0.203 2.39v0c-0.115 0.694-0.28 1.345-0.496 1.955-0.211 0.617-0.473 1.174-0.786 1.672z" fill="#000000" data-fill-palette-color="primary"></path><path d="M76.963 137.602v0c0 0.469-0.024 0.948-0.072 1.436-0.047 0.496-0.128 0.978-0.242 1.447-0.114 0.462-0.269 0.901-0.463 1.316-0.201 0.415-0.456 0.777-0.764 1.084-0.302 0.315-0.67 0.562-1.106 0.743-0.429 0.181-0.931 0.271-1.507 0.27v0c-0.857-0.001-1.601-0.199-2.23-0.595-0.629-0.396-1.151-0.905-1.566-1.528-0.421-0.616-0.732-1.307-0.932-2.07-0.207-0.77-0.31-1.531-0.31-2.281v0c0-0.074 0-0.147 0-0.221 0-0.067 0.007-0.127 0.02-0.181v0c0.007-0.241 0.027-0.566 0.061-0.974 0.027-0.409 0.074-0.844 0.142-1.306 0.067-0.469 0.155-0.948 0.262-1.436 0.108-0.482 0.252-0.917 0.433-1.306 0.174-0.388 0.386-0.706 0.634-0.954 0.248-0.248 0.543-0.371 0.884-0.371v0c0.254 0 0.465 0.074 0.633 0.222 0.167 0.147 0.308 0.332 0.421 0.553 0.107 0.221 0.18 0.452 0.221 0.693 0.047 0.248 0.07 0.472 0.07 0.673v0c0 0.308-0.031 0.619-0.091 0.934-0.061 0.308-0.121 0.616-0.182 0.924v0c-0.087 0.489-0.161 0.978-0.222 1.467-0.054 0.482-0.081 0.981-0.082 1.497v0c0 0.261 0.013 0.579 0.04 0.954 0.026 0.375 0.097 0.733 0.21 1.075 0.114 0.348 0.274 0.643 0.482 0.885 0.214 0.248 0.502 0.372 0.863 0.372v0c0.348 0 0.63-0.12 0.844-0.361 0.208-0.234 0.362-0.519 0.463-0.854 0.107-0.328 0.175-0.673 0.202-1.034 0.027-0.362 0.041-0.673 0.041-0.934v0c0.001-0.75-0.063-1.49-0.189-2.221-0.12-0.73-0.284-1.46-0.491-2.19v0c-0.053-0.194-0.1-0.389-0.14-0.583-0.04-0.188-0.06-0.378-0.06-0.573v0c0-0.321 0.094-0.599 0.282-0.833 0.188-0.241 0.452-0.361 0.794-0.361v0c0.281 0 0.542 0.111 0.783 0.332 0.248 0.221 0.468 0.513 0.662 0.874 0.187 0.355 0.354 0.754 0.502 1.196 0.14 0.442 0.261 0.881 0.36 1.316 0.1 0.442 0.177 0.861 0.231 1.256 0.053 0.395 0.083 0.72 0.089 0.975v0c0.013 0.114 0.02 0.224 0.02 0.331 0 0.107 0 0.221 0 0.342z" fill="#000000" data-fill-palette-color="primary"></path><path d="M87.712 139.379v0c0.037 0.225 0.063 0.499 0.076 0.822 0.019 0.316-0.005 0.625-0.07 0.928-0.065 0.303-0.177 0.569-0.335 0.799-0.159 0.23-0.393 0.371-0.704 0.423v0c-0.416 0.069-0.752-0.031-1.007-0.301-0.262-0.269-0.47-0.604-0.626-1.006-0.163-0.407-0.287-0.828-0.373-1.262-0.092-0.433-0.166-0.777-0.222-1.032v0c-0.784 0.266-1.557 0.517-2.319 0.752v0c0.016 0.262 0.02 0.587 0.009 0.976-0.009 0.395-0.06 0.781-0.154 1.156-0.086 0.381-0.23 0.721-0.431 1.019-0.196 0.291-0.469 0.465-0.82 0.523v0c-0.264 0.044-0.488-0.017-0.672-0.184-0.185-0.173-0.339-0.385-0.462-0.636-0.124-0.258-0.217-0.527-0.277-0.809-0.068-0.287-0.118-0.524-0.148-0.709v0c-0.107-0.641-0.162-1.28-0.166-1.917 0.002-0.639 0.019-1.276 0.048-1.913v0c0.012-0.335 0.038-0.729 0.079-1.184 0.04-0.455 0.1-0.93 0.18-1.425 0.088-0.49 0.204-0.981 0.346-1.473 0.143-0.485 0.324-0.933 0.541-1.343 0.225-0.404 0.497-0.748 0.816-1.032 0.321-0.277 0.699-0.452 1.135-0.524v0c0.429-0.071 0.815-0.04 1.156 0.093 0.349 0.139 0.665 0.348 0.949 0.626 0.289 0.271 0.543 0.592 0.761 0.963 0.224 0.37 0.424 0.751 0.597 1.143 0.174 0.392 0.329 0.777 0.467 1.155 0.139 0.384 0.262 0.72 0.372 1.008v0c0.266 0.703 0.511 1.419 0.734 2.149 0.223 0.73 0.397 1.468 0.52 2.215zM83.876 136.33l-0.081-0.486c-0.023-0.139-0.066-0.359-0.13-0.66-0.071-0.307-0.159-0.612-0.264-0.914-0.11-0.294-0.241-0.554-0.395-0.78-0.158-0.218-0.34-0.31-0.544-0.276v0c-0.112 0.019-0.205 0.112-0.28 0.281-0.074 0.168-0.132 0.372-0.173 0.609-0.041 0.244-0.067 0.514-0.08 0.808-0.013 0.287-0.022 0.564-0.025 0.829-0.003 0.265 0.002 0.502 0.016 0.71 0.009 0.216 0.017 0.367 0.025 0.454v0c0.658-0.164 1.302-0.356 1.931-0.575z" fill="#000000" data-fill-palette-color="primary"></path><path d="M95.948 129.925v0c0.252 0.742 0.304 1.467 0.155 2.175-0.142 0.706-0.422 1.381-0.84 2.025v0c0.26 0.202 0.539 0.443 0.839 0.723 0.3 0.28 0.589 0.589 0.867 0.926 0.275 0.331 0.522 0.672 0.739 1.022 0.224 0.348 0.391 0.684 0.501 1.007v0c0.116 0.342 0.135 0.679 0.057 1.01-0.072 0.329-0.308 0.561-0.708 0.697v0c-0.33 0.112-0.669 0.05-1.018-0.185-0.351-0.242-0.698-0.555-1.041-0.941-0.341-0.379-0.666-0.775-0.975-1.186-0.316-0.409-0.591-0.73-0.825-0.961v0c-0.167 0.134-0.329 0.271-0.487 0.409-0.156 0.145-0.316 0.288-0.481 0.428v0c0.067 0.239 0.158 0.569 0.273 0.99 0.11 0.429 0.19 0.862 0.239 1.298 0.049 0.436 0.033 0.837-0.048 1.204-0.083 0.36-0.286 0.596-0.609 0.706v0c-0.355 0.121-0.677 0.067-0.966-0.16-0.293-0.219-0.546-0.515-0.758-0.888-0.218-0.372-0.403-0.761-0.556-1.17-0.146-0.41-0.259-0.732-0.339-0.967v0c-0.172-0.507-0.332-1.008-0.479-1.503-0.147-0.495-0.306-0.996-0.478-1.503v0c-0.157-0.463-0.321-0.924-0.491-1.382-0.174-0.45-0.342-0.913-0.503-1.389v0c-0.037-0.108-0.083-0.244-0.139-0.409-0.056-0.165-0.105-0.339-0.146-0.524-0.048-0.182-0.087-0.36-0.117-0.533-0.035-0.165-0.04-0.305-0.015-0.419v0c0.024-0.263 0.195-0.561 0.513-0.895 0.312-0.332 0.669-0.655 1.071-0.969 0.405-0.307 0.807-0.582 1.206-0.823 0.407-0.237 0.719-0.393 0.935-0.466v0c0.545-0.185 1.062-0.247 1.549-0.186 0.487 0.061 0.93 0.218 1.328 0.472 0.404 0.252 0.753 0.583 1.047 0.992 0.295 0.409 0.528 0.868 0.7 1.375zM93.039 131.167v0c-0.095-0.279-0.23-0.47-0.407-0.573-0.176-0.103-0.41-0.105-0.702-0.005v0c-0.216 0.073-0.421 0.186-0.618 0.337-0.198 0.145-0.369 0.299-0.512 0.46v0c0.327 0.837 0.629 1.675 0.907 2.514v0c0.196-0.151 0.394-0.328 0.594-0.531 0.196-0.194 0.362-0.413 0.498-0.657 0.145-0.24 0.245-0.486 0.301-0.738 0.054-0.259 0.033-0.528-0.061-0.807z" fill="#000000" data-fill-palette-color="primary"></path><path d="M107.427 131.161v0c0.106 0.202 0.216 0.454 0.329 0.758 0.117 0.294 0.191 0.595 0.224 0.903 0.033 0.308 0.01 0.596-0.068 0.864-0.079 0.268-0.257 0.475-0.536 0.622v0c-0.374 0.196-0.724 0.206-1.051 0.029-0.333-0.173-0.636-0.426-0.909-0.759-0.282-0.336-0.532-0.697-0.749-1.082-0.223-0.382-0.401-0.686-0.535-0.911v0c-0.661 0.498-1.317 0.978-1.967 1.44v0c0.098 0.244 0.203 0.552 0.315 0.924 0.115 0.378 0.187 0.76 0.215 1.147 0.038 0.389 0.007 0.756-0.09 1.102-0.095 0.337-0.3 0.589-0.615 0.754v0c-0.237 0.124-0.469 0.136-0.696 0.036-0.23-0.106-0.442-0.259-0.638-0.46-0.199-0.206-0.371-0.433-0.516-0.682-0.155-0.252-0.276-0.46-0.363-0.626v0c-0.302-0.575-0.554-1.165-0.758-1.769-0.198-0.607-0.382-1.218-0.553-1.832v0c-0.093-0.322-0.192-0.705-0.296-1.149-0.105-0.444-0.196-0.914-0.275-1.41-0.07-0.493-0.114-0.995-0.133-1.507-0.016-0.506 0.015-0.987 0.093-1.444 0.087-0.454 0.238-0.866 0.453-1.236 0.218-0.364 0.522-0.648 0.913-0.854v0c0.385-0.202 0.761-0.293 1.127-0.273 0.375 0.023 0.741 0.122 1.098 0.297 0.36 0.167 0.701 0.392 1.024 0.677 0.329 0.281 0.637 0.581 0.925 0.898 0.288 0.318 0.556 0.635 0.805 0.951 0.252 0.322 0.475 0.602 0.668 0.841v0c0.473 0.584 0.929 1.188 1.37 1.811 0.441 0.623 0.837 1.27 1.189 1.94zM102.828 129.467l-0.229-0.436c-0.065-0.125-0.176-0.32-0.33-0.587-0.164-0.269-0.343-0.531-0.537-0.784-0.197-0.245-0.403-0.45-0.618-0.617-0.219-0.157-0.42-0.188-0.604-0.092v0c-0.101 0.053-0.16 0.171-0.178 0.354-0.017 0.183-0.009 0.394 0.026 0.633 0.038 0.245 0.097 0.509 0.177 0.792 0.077 0.277 0.156 0.542 0.236 0.795 0.08 0.253 0.159 0.476 0.238 0.67 0.076 0.202 0.131 0.343 0.165 0.423v0c0.574-0.362 1.125-0.745 1.654-1.151z" fill="#000000" data-fill-palette-color="primary"></path><path d="M114.458 119.879v0c0.151 0.196 0.358 0.485 0.619 0.868 0.267 0.378 0.544 0.803 0.831 1.274 0.283 0.476 0.555 0.976 0.817 1.502 0.263 0.516 0.464 1.017 0.602 1.502 0.139 0.476 0.198 0.913 0.175 1.312-0.023 0.398-0.177 0.708-0.463 0.929v0c-0.27 0.209-0.578 0.32-0.924 0.332-0.341 0.018-0.692-0.02-1.052-0.114-0.356-0.089-0.704-0.21-1.042-0.363-0.333-0.157-0.629-0.31-0.887-0.457v0c-0.538-0.313-1.074-0.618-1.608-0.916-0.535-0.298-1.063-0.609-1.585-0.934v0l0.289 0.373c0.299 0.387 0.593 0.773 0.882 1.159 0.295 0.382 0.558 0.783 0.791 1.205v0c0.103 0.166 0.221 0.358 0.356 0.576 0.129 0.222 0.248 0.447 0.357 0.676 0.113 0.234 0.19 0.471 0.231 0.71 0.046 0.235 0.028 0.448-0.053 0.638v0c-0.043 0.109-0.094 0.196-0.156 0.259-0.06 0.054-0.123 0.125-0.192 0.212v0l-0.039 0.031c-0.207 0.16-0.437 0.223-0.691 0.19-0.25-0.027-0.509-0.111-0.777-0.25-0.267-0.149-0.537-0.339-0.808-0.57-0.267-0.225-0.519-0.458-0.755-0.698-0.236-0.24-0.448-0.471-0.635-0.691-0.177-0.219-0.317-0.394-0.419-0.526v0c-0.16-0.207-0.387-0.518-0.682-0.933-0.291-0.41-0.596-0.881-0.914-1.414-0.314-0.527-0.622-1.085-0.924-1.673-0.298-0.583-0.531-1.143-0.701-1.68-0.17-0.537-0.251-1.021-0.243-1.449 0.013-0.433 0.162-0.76 0.448-0.981v0c0.281-0.217 0.614-0.301 0.999-0.251 0.39 0.045 0.783 0.148 1.178 0.309 0.399 0.166 0.781 0.365 1.148 0.599 0.366 0.233 0.673 0.428 0.92 0.583v0c0.481 0.305 0.953 0.61 1.416 0.913 0.466 0.308 0.936 0.626 1.41 0.955v0c0.018 0.012 0.07 0.047 0.158 0.106 0.093 0.055 0.195 0.12 0.304 0.196v0c0.119 0.077 0.258 0.164 0.418 0.262v0c-0.09-0.117-0.158-0.199-0.205-0.248-0.037-0.048-0.07-0.09-0.098-0.128-0.033-0.042-0.074-0.095-0.123-0.159-0.049-0.064-0.125-0.162-0.227-0.294v0c-0.24-0.289-0.477-0.579-0.712-0.872-0.235-0.293-0.462-0.582-0.683-0.868v0c-0.098-0.127-0.231-0.304-0.397-0.531-0.171-0.232-0.344-0.483-0.519-0.755-0.175-0.271-0.339-0.555-0.492-0.851-0.158-0.292-0.277-0.577-0.356-0.855-0.079-0.278-0.103-0.534-0.073-0.768 0.026-0.24 0.132-0.432 0.317-0.575v0c0.228-0.176 0.487-0.241 0.777-0.194 0.299 0.048 0.602 0.161 0.909 0.339 0.311 0.183 0.625 0.415 0.942 0.694 0.317 0.28 0.615 0.561 0.894 0.845 0.277 0.293 0.526 0.571 0.745 0.834 0.215 0.257 0.382 0.462 0.501 0.615z" fill="#000000" data-fill-palette-color="primary"></path><path d="M117.399 110.274v0c0.208 0.189 0.325 0.444 0.351 0.765 0.025 0.321-0.001 0.654-0.079 0.999-0.082 0.35-0.191 0.685-0.327 1.005-0.136 0.32-0.259 0.575-0.368 0.765v0c0.582 0.654 1.18 1.291 1.794 1.91 0.609 0.624 1.236 1.229 1.882 1.814v0c0.342 0.31 0.689 0.611 1.04 0.901 0.355 0.286 0.702 0.582 1.039 0.888v0c0.149 0.135 0.302 0.3 0.458 0.496 0.152 0.192 0.273 0.397 0.365 0.615 0.096 0.213 0.142 0.432 0.139 0.655-0.003 0.232-0.087 0.441-0.254 0.624v0c-0.198 0.218-0.417 0.336-0.658 0.353-0.245 0.022-0.487-0.012-0.723-0.1-0.242-0.092-0.475-0.214-0.701-0.364-0.216-0.151-0.406-0.3-0.57-0.448v0c-0.515-0.439-1.032-0.886-1.552-1.339-0.511-0.454-1.024-0.914-1.54-1.382v0c-0.427-0.387-0.846-0.767-1.259-1.14-0.407-0.378-0.825-0.761-1.251-1.147v0c-0.089 0.128-0.184 0.258-0.287 0.391-0.107 0.129-0.217 0.255-0.329 0.379v0c-0.09 0.099-0.219 0.222-0.388 0.367-0.168 0.146-0.349 0.271-0.543 0.376-0.19 0.099-0.383 0.159-0.582 0.178-0.193 0.024-0.367-0.034-0.52-0.174v0c-0.248-0.225-0.381-0.522-0.4-0.89-0.009-0.369 0.057-0.771 0.197-1.205 0.14-0.434 0.331-0.879 0.574-1.337 0.242-0.467 0.501-0.907 0.774-1.318 0.278-0.417 0.544-0.79 0.799-1.121 0.254-0.33 0.457-0.58 0.61-0.748v0c0.144-0.159 0.304-0.321 0.481-0.486 0.176-0.175 0.366-0.314 0.57-0.419 0.203-0.105 0.412-0.155 0.625-0.152 0.214 0.004 0.425 0.1 0.633 0.289z" fill="#000000" data-fill-palette-color="primary"></path><path d="M120.651 105.994v0c0.172 0.127 0.298 0.278 0.377 0.453 0.08 0.184 0.119 0.375 0.114 0.572 0.005 0.196-0.017 0.395-0.068 0.599-0.051 0.204-0.116 0.389-0.197 0.554v0c1.017 0.776 1.983 1.548 2.898 2.316 0.915 0.768 1.836 1.594 2.764 2.48v0l0.06-0.081c0.107-0.145 0.229-0.276 0.365-0.392 0.14-0.122 0.289-0.211 0.448-0.269 0.164-0.053 0.329-0.073 0.494-0.059 0.161 0.019 0.325 0.09 0.492 0.213v0c0.205 0.151 0.337 0.349 0.398 0.594 0.057 0.25 0.061 0.52 0.014 0.81-0.046 0.299-0.132 0.606-0.257 0.922-0.124 0.325-0.264 0.633-0.421 0.925-0.152 0.296-0.307 0.568-0.467 0.817-0.154 0.253-0.284 0.452-0.391 0.598v0c-0.08 0.108-0.184 0.238-0.315 0.392-0.13 0.154-0.269 0.285-0.415 0.392-0.147 0.108-0.303 0.18-0.471 0.215-0.163 0.029-0.323-0.014-0.479-0.129v0c-0.194-0.143-0.338-0.308-0.433-0.496-0.095-0.187-0.154-0.389-0.177-0.605-0.023-0.217-0.012-0.429 0.033-0.637 0.044-0.217 0.109-0.423 0.195-0.619v0c-0.457-0.429-0.912-0.857-1.364-1.282-0.456-0.42-0.934-0.827-1.433-1.221v0c-0.507-0.408-1.007-0.807-1.501-1.197-0.494-0.39-0.989-0.785-1.486-1.185v0c-0.037 0.073-0.073 0.138-0.107 0.196-0.034 0.058-0.07 0.111-0.105 0.159v0c-0.096 0.129-0.21 0.257-0.345 0.382-0.14 0.122-0.29 0.223-0.45 0.305-0.162 0.072-0.325 0.114-0.491 0.124-0.161 0.015-0.319-0.036-0.476-0.151v0c-0.312-0.231-0.473-0.549-0.481-0.955-0.008-0.406 0.064-0.831 0.218-1.276 0.159-0.441 0.357-0.861 0.594-1.26 0.236-0.409 0.437-0.726 0.604-0.952v0c0.096-0.129 0.229-0.293 0.4-0.491 0.177-0.194 0.373-0.37 0.589-0.527 0.21-0.161 0.428-0.275 0.653-0.342 0.219-0.071 0.426-0.035 0.62 0.108z" fill="#000000" data-fill-palette-color="primary"></path><path d="M129.333 99.023v0c0.217 0.119 0.522 0.301 0.914 0.547 0.396 0.24 0.82 0.518 1.273 0.835 0.449 0.323 0.899 0.672 1.349 1.049 0.448 0.368 0.832 0.746 1.153 1.136 0.318 0.381 0.547 0.758 0.686 1.131 0.139 0.374 0.121 0.719-0.052 1.037v0c-0.164 0.3-0.402 0.524-0.714 0.674-0.305 0.153-0.642 0.259-1.01 0.318-0.362 0.061-0.729 0.089-1.1 0.084-0.368-0.011-0.7-0.032-0.995-0.064v0c-0.618-0.071-1.231-0.136-1.841-0.196-0.609-0.059-1.218-0.133-1.826-0.221v0l0.414 0.227c0.429 0.235 0.853 0.471 1.273 0.708 0.423 0.232 0.825 0.494 1.206 0.788v0c0.161 0.111 0.346 0.239 0.557 0.385 0.207 0.152 0.406 0.311 0.598 0.476 0.197 0.169 0.363 0.355 0.496 0.559 0.136 0.197 0.205 0.399 0.206 0.605v0c0.005 0.117-0.008 0.217-0.038 0.3-0.033 0.074-0.063 0.164-0.091 0.271v0l-0.024 0.044c-0.126 0.229-0.311 0.379-0.557 0.451-0.24 0.075-0.51 0.102-0.812 0.082-0.305-0.029-0.627-0.096-0.968-0.198-0.335-0.1-0.659-0.212-0.972-0.338-0.313-0.126-0.599-0.252-0.858-0.379-0.25-0.129-0.448-0.234-0.595-0.314v0c-0.229-0.126-0.562-0.319-0.999-0.582-0.431-0.259-0.899-0.569-1.403-0.93-0.499-0.357-1.004-0.745-1.517-1.163-0.506-0.415-0.944-0.834-1.314-1.259-0.371-0.425-0.638-0.835-0.804-1.23-0.162-0.402-0.156-0.761 0.018-1.079v0c0.171-0.311 0.442-0.521 0.815-0.63 0.376-0.115 0.777-0.178 1.203-0.188 0.432-0.008 0.862 0.022 1.292 0.089 0.429 0.067 0.788 0.123 1.077 0.166v0c0.563 0.087 1.117 0.177 1.662 0.27 0.551 0.096 1.109 0.199 1.675 0.31v0c0.021 0.004 0.083 0.015 0.187 0.034 0.107 0.013 0.227 0.033 0.358 0.059v0c0.14 0.023 0.302 0.047 0.487 0.072v0c-0.129-0.071-0.225-0.119-0.287-0.146-0.053-0.029-0.1-0.055-0.141-0.077-0.047-0.026-0.106-0.058-0.176-0.097-0.07-0.039-0.179-0.098-0.326-0.178v0c-0.335-0.168-0.669-0.34-1.001-0.515-0.332-0.174-0.657-0.348-0.974-0.522v0c-0.141-0.077-0.333-0.186-0.577-0.327-0.249-0.144-0.509-0.305-0.777-0.484-0.269-0.178-0.533-0.372-0.792-0.582-0.262-0.205-0.485-0.418-0.668-0.642-0.183-0.223-0.308-0.448-0.375-0.675-0.072-0.231-0.052-0.449 0.061-0.654v0c0.138-0.253 0.35-0.415 0.634-0.488 0.294-0.076 0.616-0.094 0.969-0.054 0.358 0.043 0.738 0.13 1.141 0.259 0.403 0.129 0.789 0.268 1.158 0.417 0.372 0.158 0.711 0.313 1.016 0.465 0.3 0.149 0.535 0.27 0.706 0.364z" fill="#000000" data-fill-palette-color="primary"></path><path d="M136.752 91.893v0c0.202 0.07 0.384 0.19 0.545 0.359v0c0.14 0.169 0.264 0.496 0.372 0.98 0.108 0.484 0.19 1.005 0.244 1.563 0.054 0.558 0.08 1.088 0.076 1.59 0 0.51-0.036 0.87-0.109 1.079v0c-0.053 0.152-0.149 0.317-0.289 0.495-0.142 0.185-0.302 0.359-0.48 0.524-0.178 0.165-0.365 0.306-0.561 0.422-0.196 0.116-0.371 0.19-0.524 0.223v0c-0.091 0.018-0.257 0.006-0.498-0.035-0.235-0.039-0.508-0.098-0.821-0.179-0.306-0.078-0.634-0.164-0.985-0.257-0.342-0.097-0.668-0.189-0.978-0.276-0.308-0.093-0.583-0.178-0.826-0.255-0.236-0.075-0.408-0.131-0.516-0.168v0c-0.399-0.138-0.85-0.309-1.353-0.512-0.501-0.21-1-0.439-1.494-0.689-0.499-0.258-0.96-0.543-1.385-0.853-0.424-0.31-0.761-0.647-1.01-1.01v0c-0.069-0.109-0.118-0.293-0.149-0.552-0.028-0.265-0.037-0.566-0.027-0.903 0.006-0.345 0.029-0.706 0.068-1.082 0.034-0.385 0.08-0.752 0.137-1.101 0.057-0.349 0.113-0.663 0.168-0.941 0.054-0.279 0.106-0.488 0.154-0.627v0c0.057-0.164 0.146-0.307 0.266-0.429 0.12-0.121 0.258-0.212 0.413-0.271 0.149-0.062 0.306-0.096 0.471-0.103 0.165-0.006 0.327 0.018 0.485 0.073v0c0.139 0.048 0.253 0.109 0.341 0.182 0.084 0.065 0.17 0.155 0.258 0.27v0c0.102 0.156 0.192 0.439 0.269 0.849 0.069 0.414 0.129 0.853 0.18 1.317 0.049 0.471 0.083 0.915 0.101 1.333 0.022 0.426 0.04 0.723 0.053 0.89v0c0.231 0.13 0.465 0.264 0.7 0.403 0.238 0.132 0.482 0.256 0.732 0.371v0c-0.054-0.395-0.085-0.827-0.092-1.297-0.007-0.47 0.055-0.892 0.185-1.266v0c0.264-0.759 0.772-1.008 1.524-0.746v0c0.177 0.062 0.326 0.152 0.448 0.272 0.115 0.118 0.204 0.248 0.268 0.391 0.068 0.151 0.118 0.314 0.15 0.488 0.032 0.174 0.061 0.344 0.089 0.509v0c0.059 0.403 0.093 0.816 0.102 1.238 0.001 0.426 0 0.847-0.003 1.264v0c0.082 0.05 0.169 0.105 0.262 0.165 0.095 0.054 0.189 0.098 0.284 0.131v0c0.152 0.053 0.307 0.096 0.465 0.13 0.154 0.025 0.311 0.055 0.47 0.088v0c0-0.142 0.001-0.372 0.005-0.689 0.004-0.318 0.012-0.648 0.025-0.991 0.006-0.345 0.025-0.675 0.057-0.991 0.031-0.315 0.071-0.542 0.119-0.681v0c0.055-0.158 0.141-0.295 0.26-0.41 0.118-0.115 0.251-0.203 0.4-0.265 0.147-0.055 0.306-0.085 0.478-0.09 0.165-0.006 0.324 0.017 0.476 0.07z" fill="#000000" data-fill-palette-color="primary"></path><path d="M1.8 73.437c0-2.801 2.271-5.072 5.072-5.072 2.801 0 5.072 2.271 5.072 5.072 0 2.801-2.271 5.072-5.072 5.072-2.801 0-5.072-2.271-5.072-5.072z" fill="#000000" data-fill-palette-color="primary"></path><path d="M131.998 73.437c0-2.801 2.271-5.072 5.072-5.072 2.801 0 5.072 2.271 5.072 5.072 0 2.801-2.271 5.072-5.072 5.072-2.801 0-5.072-2.271-5.072-5.072z" fill="#000000" data-fill-palette-color="primary"></path></g></svg></g></svg></g></svg></g><g></g></svg></g></svg></g></svg></g><defs></defs></svg><rect width="320" height="360" fill="none" stroke="none" visibility="hidden"></rect></g></svg></g></svg>